<?xml version="1.0" encoding="utf-8"?>
<!-- Generator: Adobe Illustrator 24.1.0, SVG Export Plug-In . SVG Version: 6.00 Build 0)  -->
<svg version="1.1" id="emma" xmlns="http://www.w3.org/2000/svg" xmlns:xlink="http://www.w3.org/1999/xlink" x="0px" y="0px"
	 viewBox="0 0 108.4 95" style="enable-background:new 0 0 108.4 95;" xml:space="preserve">
<style type="text/css">
	.st0{fill:#E28892;}
</style>
<g>
	<g>
		<path class="st0" d="M51.5,49.8c-1.7,0-3.2-1-3.9-2.3c-1.1-2-0.5-4.4,1.4-5.5c1.7-1,1.7-4.2,1.3-7.2c-6.3,8.4-11,13.3-25,13.3
			c-4.4,0-8-1-11.8-2.1l-1-0.3c-1.1-0.3-1.7-1.4-1.4-2.5s1.4-1.7,2.5-1.4l1,0.3c3.5,1,6.9,2,10.7,2c12.9,0,16.3-4.5,23.1-13.6
			l1.2-1.5c0.5-0.6,1.2-0.9,1.9-0.8s1.4,0.6,1.6,1.3c0.4,1.3,4.1,12.4-2,16c0,0.1,0.1,0.2,0.2,0.2c0.1,0.1,0.3,0,0.6-0.1
			c3.2-1.7,8.2-7,6.8-16.2c-0.1-0.9,0.3-1.8,1.2-2.1c0.8-0.4,1.8-0.2,2.4,0.5c7.8,8.8,19.4,13.9,31.8,13.9c0.4,0,0.8,0,1.2,0h0.2
			c0,0,0,0,0.1,0c1.1,0,2,0.9,2,2s-0.8,2.1-2,2.1h-0.2c-0.5,0-0.9,0-1.4,0c-11.7,0-22.8-4.1-31.1-11.5c-0.6,8.2-5.7,13.2-9.1,15
			C53,49.6,52.2,49.8,51.5,49.8z"/>
	</g>
	<g>
		<path class="st0" d="M54.5,81.8c-4.5,0-8.7-1.4-11.3-3.8c-0.8-0.8-0.9-2-0.1-2.9c0.8-0.8,2-0.9,2.9-0.1c1.9,1.7,5.1,2.7,8.6,2.7
			c3.5,0,6.7-1,8.6-2.7c0.8-0.8,2.1-0.7,2.9,0.1c0.8,0.8,0.7,2.1-0.1,2.9C63.2,80.3,58.9,81.8,54.5,81.8z"/>
	</g>
	<g>
		<path class="st0" d="M54.1,95c-17,0-32.5-10.6-38.5-26.5c-0.4-1.1,0.1-2.2,1.2-2.6s2.2,0.1,2.6,1.2C24.9,81.4,38.9,91,54.1,91
			c15.3,0,29.3-9.6,34.8-23.9c0.4-1.1,1.6-1.6,2.6-1.2c1.1,0.4,1.6,1.6,1.2,2.6C86.6,84.3,71.1,95,54.1,95z"/>
	</g>
	<g>
		<g>
			<path class="st0" d="M13.1,45.8c-1.1,0-2-0.9-2-2v-0.1c0-0.1,0-0.2,0-0.3C11,19.5,30.5,0,54.5,0c23.9,0,43.4,19.5,43.4,43.4v0.1
				c0,1.1-0.9,2-2,2s-2-0.9-2-2.1v-0.1C93.9,21.6,76.2,4,54.6,4C32.9,4,15.3,21.7,15.3,43.3v0.4C15.1,44.9,14.2,45.8,13.1,45.8
				L13.1,45.8z"/>
		</g>
		<g>
			<path class="st0" d="M17.4,69.8L17.4,69.8C4.6,69.3,0,59.6,0,53.2c0-6.9,4.4-11.8,10.6-11.8c1,0,2,0.1,3,0.4
				c1.1,0.3,1.7,1.4,1.4,2.5s-1.4,1.7-2.5,1.4c-0.7-0.2-1.3-0.3-2-0.3C6,45.4,4,49.3,4,53.1c0,3.3,2.4,12.1,13.4,12.5
				c1.1,0,2,1,2,2.1C19.4,68.9,18.5,69.8,17.4,69.8z"/>
		</g>
		<g>
			<path class="st0" d="M90.7,69.8c-1.1,0-2-0.8-2-1.9c-0.1-1.1,0.8-2.1,1.9-2.2c10.3-0.6,13-8.5,13-12.5c0-3.8-2-7.7-6.5-7.7
				c-0.3,0-0.6,0-1,0.1C95,45.7,94,45,93.8,43.8c-0.1-1.1,0.6-2.1,1.8-2.3c0.5-0.1,1-0.1,1.5-0.1c6.2,0,10.6,4.8,10.6,11.8
				c0,6.2-4.5,15.8-16.8,16.6C90.8,69.8,90.8,69.8,90.7,69.8z"/>
		</g>
	</g>
	<g>
		<g>
			<path class="st0" d="M73.3,61.8c-1.7,0-3.1-1.4-3.1-3.1v-4.1c0-1.7,1.4-3.1,3.1-3.1s3.1,1.4,3.1,3.1v4.1
				C76.4,60.4,75,61.8,73.3,61.8z"/>
		</g>
		<g>
			<path class="st0" d="M34.9,61.8c-1.7,0-3.1-1.4-3.1-3.1v-4.1c0-1.7,1.4-3.1,3.1-3.1s3.1,1.4,3.1,3.1v4.1
				C37.9,60.4,36.6,61.8,34.9,61.8z"/>
		</g>
	</g>
	<g>
		<path class="st0" d="M35.6,90.4c-21.8,0-35.1-8.5-35.1-13.1c0-0.9,0.4-1.8,1.2-2.3c0.5-0.4,1.2-0.6,2-0.6c5.7,0,6.6-7.6,6.6-7.7
			c0.1-1.1,1.1-1.9,2.3-1.8c1.1,0.1,1.9,1.1,1.8,2.3c-0.4,3.5-2.8,10-8.7,11.1c3.2,2.7,13.1,8,29.9,8c1.1,0,2,0.9,2,2
			C37.7,89.5,36.8,90.4,35.6,90.4z"/>
	</g>
	<g>
		<path class="st0" d="M73.3,90.4c-1.1,0-2-0.9-2-2s0.9-2,2-2c16.8,0,26.6-5.3,29.9-8c-2.3-0.5-4.3-1.8-5.9-3.8
			c-2.3-3.2-2.8-7.1-2.8-7.3c-0.1-1.1,0.7-2.1,1.8-2.3c1.1-0.1,2.1,0.7,2.3,1.8l0,0c0,0,0.4,3.1,2.1,5.3c1.2,1.6,2.7,2.4,4.6,2.4
			c0.8,0,1.5,0.2,2,0.6c0.8,0.5,1.2,1.3,1.2,2.3C108.4,81.9,95.1,90.4,73.3,90.4z M105.2,78.5L105.2,78.5L105.2,78.5z"/>
	</g>
</g>
</svg>
