<?xml version="1.0" encoding="utf-8"?>
<!-- Generator: Adobe Illustrator 24.1.0, SVG Export Plug-In . SVG Version: 6.00 Build 0)  -->
<svg version="1.1" id="movie" xmlns="http://www.w3.org/2000/svg" xmlns:xlink="http://www.w3.org/1999/xlink" x="0px" y="0px"
	 viewBox="0 0 571 391" style="enable-background:new 0 0 571 391;" xml:space="preserve">
<style type="text/css">
	.st0{fill:#2239A0;}
</style>
<g id="rectangle">
</g>
<g id="Roku_1_">
</g>
<g id="flashback">
	<g>
		<path class="st0" d="M537.9,391H33.1C14.8,391,0,376.2,0,357.9V33.1C0,14.9,14.8,0,33.1,0h504.8C556.1,0,571,14.9,571,33.1v324.8
			C571,376.2,556.1,391,537.9,391z M33.1,16.6c-9.1,0-16.6,7.4-16.6,16.6V358c0,9.1,7.4,16.6,16.6,16.6h504.8
			c9.1,0,16.5-7.4,16.5-16.6V33.1c0-9.1-7.4-16.6-16.5-16.6H33.1V16.6z"/>
		<path class="st0" d="M562.7,334.1H8.3c-4.6,0-8.3-3.7-8.3-8.3V65.3C0,60.7,3.7,57,8.3,57h554.4c4.6,0,8.3,3.7,8.3,8.3v260.5
			C571,330.4,567.3,334.1,562.7,334.1z M16.6,317.5h537.9v-244H16.6V317.5z"/>
		<path class="st0" d="M246.7,269.5c-1.4,0-2.8-0.4-4.1-1.1c-2.6-1.5-4.2-4.2-4.2-7.2V134c0-2.9,1.6-5.6,4.1-7.1
			c2.5-1.5,5.7-1.5,8.2-0.1l110.7,61.5c2.6,1.4,4.2,4.1,4.3,7.1c0,3-1.5,5.7-4,7.2L251,268.3C249.6,269.1,248.2,269.5,246.7,269.5z
			 M255,148.1v98.6l85.8-51L255,148.1z"/>
		<path class="st0" d="M99.3,73.5c-4.6,0-8.3-3.7-8.3-8.3v-57C91,3.7,94.7,0,99.3,0c4.6,0,8.3,3.7,8.3,8.3v57
			C107.6,69.8,103.9,73.5,99.3,73.5z"/>
		<path class="st0" d="M192.4,73.5c-4.6,0-8.3-3.7-8.3-8.3v-57c0-4.6,3.7-8.3,8.3-8.3s8.3,3.7,8.3,8.3v57
			C200.7,69.8,197,73.5,192.4,73.5z"/>
		<path class="st0" d="M285.5,73.5c-4.6,0-8.3-3.7-8.3-8.3v-57c0-4.6,3.7-8.3,8.3-8.3c4.6,0,8.3,3.7,8.3,8.3v57
			C293.8,69.8,290.1,73.5,285.5,73.5z"/>
		<path class="st0" d="M378.6,73.5c-4.6,0-8.3-3.7-8.3-8.3v-57c0-4.6,3.7-8.3,8.3-8.3c4.6,0,8.3,3.7,8.3,8.3v57
			C386.9,69.8,383.2,73.5,378.6,73.5z"/>
		<path class="st0" d="M471.7,73.5c-4.6,0-8.3-3.7-8.3-8.3v-57c0-4.6,3.7-8.3,8.3-8.3c4.6,0,8.3,3.7,8.3,8.3v57
			C480,69.8,476.2,73.5,471.7,73.5z"/>
		<path class="st0" d="M99.3,391c-4.6,0-8.3-3.7-8.3-8.3v-57c0-4.6,3.7-8.3,8.3-8.3c4.6,0,8.3,3.7,8.3,8.3v57
			C107.6,387.3,103.9,391,99.3,391z"/>
		<path class="st0" d="M192.4,391c-4.6,0-8.3-3.7-8.3-8.3v-57c0-4.6,3.7-8.3,8.3-8.3s8.3,3.7,8.3,8.3v57
			C200.7,387.3,197,391,192.4,391z"/>
		<path class="st0" d="M285.5,391c-4.6,0-8.3-3.7-8.3-8.3v-57c0-4.6,3.7-8.3,8.3-8.3c4.6,0,8.3,3.7,8.3,8.3v57
			C293.8,387.3,290.1,391,285.5,391z"/>
		<path class="st0" d="M378.6,391c-4.6,0-8.3-3.7-8.3-8.3v-57c0-4.6,3.7-8.3,8.3-8.3c4.6,0,8.3,3.7,8.3,8.3v57
			C386.9,387.3,383.2,391,378.6,391z"/>
		<path class="st0" d="M471.7,391c-4.6,0-8.3-3.7-8.3-8.3v-57c0-4.6,3.7-8.3,8.3-8.3c4.6,0,8.3,3.7,8.3,8.3v57
			C480,387.3,476.2,391,471.7,391z"/>
	</g>
</g>
<g id="Roku_3_">
</g>
</svg>
