<?xml version="1.0" encoding="utf-8"?>
<!-- Generator: Adobe Illustrator 24.1.0, SVG Export Plug-In . SVG Version: 6.00 Build 0)  -->
<svg version="1.1" id="tv" xmlns="http://www.w3.org/2000/svg" xmlns:xlink="http://www.w3.org/1999/xlink" x="0px" y="0px"
	 viewBox="0 0 279.7 258.4" style="enable-background:new 0 0 279.7 258.4;" xml:space="preserve">
<style type="text/css">
	.st0{fill:#2239A0;}
</style>
<g>
	<path class="st0" d="M50,258.4c-28,0-50-14.8-50-33.8s22-33.8,50-33.8c5.8,0,11.5,0.6,16.8,1.9V52c0-21.7,10.5-41.4,27.3-51.5
		C95,0,96-0.1,96.9,0.1c1,0.4,31.7,18.1,31.7,18.1c13.6,7.9,22.1,23.6,22.1,41v34c0,2.1-1.3,3.9-3.1,4.4c-1.8,0.4-3.6-0.5-4.4-2.4
		l-15.3-35.6c-1.8-4.2-4.9-7.7-8.6-9.8l-13.3-7.6c-2-1.1-2.7-3.8-1.8-6c1-2.2,3.3-3.1,5.3-2l13.3,7.6c5.2,3,9.5,7.9,12.1,13.9
		l7.8,18.2V59.2c0-14-6.8-26.6-17.8-33l-25-14.5v212.8C100,243.5,78,258.4,50,258.4z M50,199.8c-22.8,0-42.1,11.4-42.1,24.8
		s19.3,24.8,42.1,24.8s42.1-11.4,42.1-24.8v-212C81.2,21.8,74.7,36.3,74.7,52v146.2c0,0.5,0,1-0.1,1.5c-0.5,2.2-2.4,3.5-4.3,3.2
		c-0.3,0-0.6-0.1-0.9-0.3C63.4,200.8,56.7,199.8,50,199.8z"/>
	<path class="st0" d="M19,227.6c-1,0-2-0.4-2.8-1.3c-1.5-1.8-1.6-4.6,0-6.3c7-8,19.6-12.8,33.5-12.8c2.2,0,3.9,2,3.9,4.5
		c0,2.5-1.8,4.5-3.9,4.5c-11.7,0-22.4,3.9-27.9,10.2C21,227.1,20,227.6,19,227.6z"/>
	<path class="st0" d="M179,258.4c-28,0-50-14.8-50-33.8s22-33.8,50-33.8c5.8,0,11.5,0.6,16.8,1.9V52c0-21.7,10.5-41.4,27.3-51.5
		c1-0.5,1.9-0.6,2.7-0.4c1,0.4,31.7,18.1,31.7,18.1c13.6,7.9,22.1,23.6,22.1,41v34c0,2.1-1.3,3.9-3.1,4.4c-1.8,0.4-3.6-0.5-4.4-2.4
		l-15.3-35.6c-1.8-4.2-4.9-7.7-8.6-9.8L235,42.2c-1.9-1.1-2.7-3.8-1.8-6c1-2.2,3.3-3.1,5.3-2l13.4,7.6c5.2,3,9.5,7.9,12.1,13.9
		l7.8,18.2V59.2c0-14-6.8-26.6-17.8-33l-25-14.5v212.8C229,243.5,207,258.4,179,258.4z M179,199.8c-22.8,0-42.1,11.4-42.1,24.8
		s19.3,24.8,42.1,24.8c22.8,0,42.1-11.4,42.1-24.8v-212c-10.8,9.2-17.3,23.7-17.3,39.4v146.2c0,0.5,0,1-0.1,1.5
		c-0.5,2.2-2.4,3.5-4.3,3.2c-0.3,0-0.6-0.1-0.9-0.3C192.3,200.8,185.8,199.8,179,199.8z"/>
	<path class="st0" d="M148,227.6c-1,0-2-0.4-2.8-1.3c-1.5-1.8-1.6-4.6,0-6.3c7-8,19.6-12.8,33.5-12.8c2.2,0,3.9,2,3.9,4.5
		c0,2.5-1.8,4.5-3.9,4.5c-11.7,0-22.4,3.9-27.9,10.2C150.1,227.1,149,227.6,148,227.6z"/>
	<path class="st0" d="M112.9,258.4H50c-2.2,0-3.9-2-3.9-4.5c0-2.5,1.8-4.5,3.9-4.5h62.9c2.2,0,3.9,2,3.9,4.5
		C116.9,256.4,115.1,258.4,112.9,258.4z"/>
	<path class="st0" d="M241.7,258.4h-62.9c-2.2,0-3.9-2-3.9-4.5c0-2.5,1.8-4.5,3.9-4.5h62.9c2.2,0,3.9,2,3.9,4.5
		C245.6,256.4,243.9,258.4,241.7,258.4z"/>
</g>
</svg>
