<?xml version="1.0" encoding="utf-8"?>
<!-- Generator: Adobe Illustrator 24.1.0, SVG Export Plug-In . SVG Version: 6.00 Build 0)  -->
<svg version="1.1" id="emma" xmlns="http://www.w3.org/2000/svg" xmlns:xlink="http://www.w3.org/1999/xlink" x="0px" y="0px"
	 viewBox="0 0 131.5 129" style="enable-background:new 0 0 131.5 129;" xml:space="preserve">
<style type="text/css">
	.st0{fill:#40ADAA;}
</style>
<g>
	<g>
		<path class="st0" d="M31,71.9c-5.4,0-9.8-1.3-14.5-2.6l-1.2-0.3c-1.3-0.4-2.1-1.8-1.7-3.1c0.4-1.3,1.8-2.1,3.1-1.7l1.2,0.3
			c4.3,1.2,8.4,2.4,13.1,2.4c16.5,0,31.9-7.4,41.2-19.8c0.8-1.1,2.4-1.3,3.5-0.5c1.1,0.8,1.3,2.4,0.5,3.5C65.9,63.7,49,71.9,31,71.9
			z"/>
	</g>
	<g>
		<path class="st0" d="M115,68.9c-16.6,0-32.1-6.8-42.6-18.6c-0.9-1-0.8-2.6,0.2-3.5c1-0.9,2.6-0.8,3.5,0.2
			c9.6,10.8,23.7,16.9,38.9,16.9c0.5,0,1,0,1.5,0l0.3,0c1.4-0.1,2.5,1,2.6,2.4c0,1.4-1,2.5-2.4,2.6l-0.3,0
			C116.1,68.8,115.5,68.9,115,68.9z"/>
	</g>
	<g>
		<path class="st0" d="M66.6,112.9c-5.5,0-10.6-1.7-13.8-4.6c-1-0.9-1.1-2.5-0.2-3.5c0.9-1,2.5-1.1,3.5-0.2
			c2.3,2.1,6.2,3.3,10.5,3.3c4.3,0,8.2-1.2,10.5-3.3c1-0.9,2.6-0.8,3.5,0.2c0.9,1,0.8,2.6-0.2,3.5C77.2,111.2,72,112.9,66.6,112.9z"
			/>
	</g>
	<g>
		<path class="st0" d="M66.1,129c-20.7,0-39.7-13-47.1-32.4c-0.5-1.3,0.1-2.7,1.4-3.2c1.3-0.5,2.7,0.1,3.2,1.4
			c6.7,17.4,23.8,29.2,42.4,29.2c18.7,0,35.8-11.7,42.5-29.2c0.5-1.3,1.9-1.9,3.2-1.4c1.3,0.5,1.9,1.9,1.4,3.2
			C105.8,116,86.8,129,66.1,129z"/>
	</g>
	<g>
		<g>
			<path class="st0" d="M16,69c-1.4,0-2.5-1.1-2.5-2.5l0-0.1c0-0.1,0-0.2,0-0.3C13.5,36.8,37.3,13,66.6,13s53.1,23.8,53.1,53.1
				c0,0,0,0.1,0,0.2c0,1.4-1.1,2.5-2.5,2.5s-2.5-1.1-2.5-2.5c0,0,0-0.1,0-0.2c0-26.5-21.6-48.1-48.1-48.1S18.5,39.5,18.5,66.1l0,0.4
				C18.5,67.9,17.4,69,16,69C16,69,16,69,16,69z"/>
		</g>
		<g>
			<path class="st0" d="M21.3,98.3c0,0-0.1,0-0.1,0C5.6,97.6,0,85.8,0,78c0-8.5,5.3-14.4,12.9-14.4c1.2,0,2.5,0.2,3.7,0.5
				c1.3,0.4,2.1,1.7,1.8,3.1c-0.4,1.3-1.7,2.1-3.1,1.8c-0.8-0.2-1.6-0.3-2.4-0.3C7.4,68.6,5,73.3,5,78c0,4.1,2.9,14.8,16.4,15.3
				c1.4,0.1,2.4,1.2,2.4,2.6C23.7,97.2,22.6,98.3,21.3,98.3z"/>
		</g>
		<g>
			<path class="st0" d="M110.9,98.2c-1.3,0-2.4-1-2.5-2.3c-0.1-1.4,1-2.6,2.3-2.6c12.5-0.8,15.8-10.3,15.8-15.3
				c0-4.7-2.5-9.4-7.9-9.4c-0.4,0-0.8,0-1.2,0.1c-1.4,0.2-2.6-0.8-2.8-2.2c-0.2-1.4,0.8-2.6,2.2-2.8c0.6-0.1,1.2-0.1,1.8-0.1
				c7.6,0,12.9,5.9,12.9,14.4c0,7.6-5.5,19.3-20.5,20.2C111,98.2,110.9,98.2,110.9,98.2z"/>
		</g>
	</g>
	<g>
		<path class="st0" d="M71.8,18c-0.1,0-0.1,0-0.2,0c-1.1-0.1-2-0.9-2.2-2c0-0.1-2.5-11.1-9.3-11.1c-1.4,0-2.5-1.1-2.5-2.5
			c0-1.4,1.1-2.5,2.5-2.5c6.6,0,10.4,5.3,12.3,9.7c2-2.5,4.9-5,8.9-5c1.4,0,2.5,1.1,2.5,2.5s-1.1,2.5-2.5,2.5
			c-4.3,0-7.1,6.7-7.2,6.8C73.7,17.4,72.8,18,71.8,18z"/>
	</g>
	<g>
		<g>
			<path class="st0" d="M89.6,88.5c-2.1,0-3.7-1.7-3.7-3.7v-5c0-2.1,1.7-3.7,3.7-3.7c2.1,0,3.7,1.7,3.7,3.7v5
				C93.3,86.9,91.6,88.5,89.6,88.5z"/>
		</g>
		<g>
			<path class="st0" d="M42.6,88.5c-2.1,0-3.7-1.7-3.7-3.7v-5c0-2.1,1.7-3.7,3.7-3.7c2.1,0,3.7,1.7,3.7,3.7v5
				C46.4,86.9,44.7,88.5,42.6,88.5z"/>
		</g>
	</g>
</g>
</svg>
