<?xml version="1.0" encoding="utf-8"?>
<!-- Generator: Adobe Illustrator 24.0.3, SVG Export Plug-In . SVG Version: 6.00 Build 0)  -->
<svg version="1.1" id="flashback_x5F_roku" xmlns="http://www.w3.org/2000/svg" xmlns:xlink="http://www.w3.org/1999/xlink" x="0px"
	 y="0px" viewBox="0 0 1156.4 341.4" style="enable-background:new 0 0 1156.4 341.4;" xml:space="preserve">
<style type="text/css">
	.st0{fill:#DBE4FF;}
	
		.st1{clip-path:url(#SVGID_4_);fill-rule:evenodd;clip-rule:evenodd;fill:#DBE4FF;stroke:#FFFFFF;stroke-linecap:square;stroke-linejoin:round;stroke-miterlimit:10;}
	
		.st2{clip-path:url(#SVGID_6_);fill-rule:evenodd;clip-rule:evenodd;fill:#DBE4FF;stroke:#FFFFFF;stroke-linecap:square;stroke-linejoin:round;stroke-miterlimit:10;}
	
		.st3{clip-path:url(#SVGID_8_);fill-rule:evenodd;clip-rule:evenodd;fill:#DBE4FF;stroke:#FFFFFF;stroke-linecap:square;stroke-linejoin:round;stroke-miterlimit:10;}
	
		.st4{clip-path:url(#SVGID_10_);fill-rule:evenodd;clip-rule:evenodd;fill:#DBE4FF;stroke:#FFFFFF;stroke-linecap:square;stroke-linejoin:round;stroke-miterlimit:10;}
	
		.st5{clip-path:url(#SVGID_12_);fill-rule:evenodd;clip-rule:evenodd;fill:#DBE4FF;stroke:#FFFFFF;stroke-linecap:square;stroke-linejoin:round;stroke-miterlimit:10;}
	
		.st6{clip-path:url(#SVGID_14_);fill-rule:evenodd;clip-rule:evenodd;fill:#DBE4FF;stroke:#FFFFFF;stroke-linecap:square;stroke-linejoin:round;stroke-miterlimit:10;}
	
		.st7{clip-path:url(#SVGID_16_);fill-rule:evenodd;clip-rule:evenodd;fill:#DBE4FF;stroke:#FFFFFF;stroke-linecap:square;stroke-linejoin:round;stroke-miterlimit:10;}
	
		.st8{clip-path:url(#SVGID_18_);fill-rule:evenodd;clip-rule:evenodd;fill:#DBE4FF;stroke:#FFFFFF;stroke-linecap:square;stroke-linejoin:round;stroke-miterlimit:10;}
	
		.st9{clip-path:url(#SVGID_20_);fill-rule:evenodd;clip-rule:evenodd;fill:#DBE4FF;stroke:#FFFFFF;stroke-linecap:square;stroke-linejoin:round;stroke-miterlimit:10;}
	
		.st10{clip-path:url(#SVGID_22_);fill-rule:evenodd;clip-rule:evenodd;fill:#DBE4FF;stroke:#FFFFFF;stroke-linecap:square;stroke-linejoin:round;stroke-miterlimit:10;}
	
		.st11{clip-path:url(#SVGID_24_);fill-rule:evenodd;clip-rule:evenodd;fill:#DBE4FF;stroke:#FFFFFF;stroke-linecap:square;stroke-linejoin:round;stroke-miterlimit:10;}
	
		.st12{clip-path:url(#SVGID_26_);fill-rule:evenodd;clip-rule:evenodd;fill:#DBE4FF;stroke:#FFFFFF;stroke-linecap:square;stroke-linejoin:round;stroke-miterlimit:10;}
	
		.st13{clip-path:url(#SVGID_28_);fill-rule:evenodd;clip-rule:evenodd;fill:#DBE4FF;stroke:#FFFFFF;stroke-linecap:square;stroke-linejoin:round;stroke-miterlimit:10;}
	
		.st14{clip-path:url(#SVGID_30_);fill-rule:evenodd;clip-rule:evenodd;fill:#DBE4FF;stroke:#FFFFFF;stroke-linecap:square;stroke-linejoin:round;stroke-miterlimit:10;}
	
		.st15{clip-path:url(#SVGID_32_);fill-rule:evenodd;clip-rule:evenodd;fill:#DBE4FF;stroke:#FFFFFF;stroke-linecap:square;stroke-linejoin:round;stroke-miterlimit:10;}
	
		.st16{clip-path:url(#SVGID_34_);fill-rule:evenodd;clip-rule:evenodd;fill:#DBE4FF;stroke:#FFFFFF;stroke-linecap:square;stroke-linejoin:round;stroke-miterlimit:10;}
	
		.st17{clip-path:url(#SVGID_36_);fill-rule:evenodd;clip-rule:evenodd;fill:#DBE4FF;stroke:#FFFFFF;stroke-linecap:square;stroke-linejoin:round;stroke-miterlimit:10;}
	
		.st18{clip-path:url(#SVGID_38_);fill-rule:evenodd;clip-rule:evenodd;fill:#DBE4FF;stroke:#FFFFFF;stroke-linecap:square;stroke-linejoin:round;stroke-miterlimit:10;}
	
		.st19{clip-path:url(#SVGID_40_);fill-rule:evenodd;clip-rule:evenodd;fill:#DBE4FF;stroke:#FFFFFF;stroke-linecap:square;stroke-linejoin:round;stroke-miterlimit:10;}
	
		.st20{clip-path:url(#SVGID_42_);fill-rule:evenodd;clip-rule:evenodd;fill:#DBE4FF;stroke:#FFFFFF;stroke-linecap:square;stroke-linejoin:round;stroke-miterlimit:10;}
	
		.st21{clip-path:url(#SVGID_44_);fill-rule:evenodd;clip-rule:evenodd;fill:#DBE4FF;stroke:#FFFFFF;stroke-linecap:square;stroke-linejoin:round;stroke-miterlimit:10;}
	
		.st22{clip-path:url(#SVGID_46_);fill-rule:evenodd;clip-rule:evenodd;fill:#DBE4FF;stroke:#FFFFFF;stroke-linecap:square;stroke-linejoin:round;stroke-miterlimit:10;}
	
		.st23{clip-path:url(#SVGID_48_);fill-rule:evenodd;clip-rule:evenodd;fill:#DBE4FF;stroke:#FFFFFF;stroke-linecap:square;stroke-linejoin:round;stroke-miterlimit:10;}
	
		.st24{clip-path:url(#SVGID_50_);fill-rule:evenodd;clip-rule:evenodd;fill:#DBE4FF;stroke:#FFFFFF;stroke-linecap:square;stroke-linejoin:round;stroke-miterlimit:10;}
	
		.st25{clip-path:url(#SVGID_52_);fill-rule:evenodd;clip-rule:evenodd;fill:#DBE4FF;stroke:#FFFFFF;stroke-linecap:square;stroke-linejoin:round;stroke-miterlimit:10;}
	
		.st26{clip-path:url(#SVGID_54_);fill-rule:evenodd;clip-rule:evenodd;fill:#DBE4FF;stroke:#FFFFFF;stroke-linecap:square;stroke-linejoin:round;stroke-miterlimit:10;}
	
		.st27{clip-path:url(#SVGID_56_);fill-rule:evenodd;clip-rule:evenodd;fill:#DBE4FF;stroke:#FFFFFF;stroke-linecap:square;stroke-linejoin:round;stroke-miterlimit:10;}
	
		.st28{clip-path:url(#SVGID_58_);fill-rule:evenodd;clip-rule:evenodd;fill:#DBE4FF;stroke:#FFFFFF;stroke-linecap:square;stroke-linejoin:round;stroke-miterlimit:10;}
	
		.st29{clip-path:url(#SVGID_60_);fill-rule:evenodd;clip-rule:evenodd;fill:#DBE4FF;stroke:#FFFFFF;stroke-linecap:square;stroke-linejoin:round;stroke-miterlimit:10;}
	
		.st30{clip-path:url(#SVGID_62_);fill-rule:evenodd;clip-rule:evenodd;fill:#DBE4FF;stroke:#FFFFFF;stroke-linecap:square;stroke-linejoin:round;stroke-miterlimit:10;}
	
		.st31{clip-path:url(#SVGID_64_);fill-rule:evenodd;clip-rule:evenodd;fill:#DBE4FF;stroke:#FFFFFF;stroke-linecap:square;stroke-linejoin:round;stroke-miterlimit:10;}
	
		.st32{clip-path:url(#SVGID_66_);fill-rule:evenodd;clip-rule:evenodd;fill:#DBE4FF;stroke:#FFFFFF;stroke-linecap:square;stroke-linejoin:round;stroke-miterlimit:10;}
	
		.st33{clip-path:url(#SVGID_68_);fill-rule:evenodd;clip-rule:evenodd;fill:#DBE4FF;stroke:#FFFFFF;stroke-linecap:square;stroke-linejoin:round;stroke-miterlimit:10;}
	
		.st34{clip-path:url(#SVGID_70_);fill-rule:evenodd;clip-rule:evenodd;fill:#DBE4FF;stroke:#FFFFFF;stroke-linecap:square;stroke-linejoin:round;stroke-miterlimit:10;}
	
		.st35{clip-path:url(#SVGID_72_);fill-rule:evenodd;clip-rule:evenodd;fill:#DBE4FF;stroke:#FFFFFF;stroke-linecap:square;stroke-linejoin:round;stroke-miterlimit:10;}
	
		.st36{clip-path:url(#SVGID_74_);fill-rule:evenodd;clip-rule:evenodd;fill:#DBE4FF;stroke:#FFFFFF;stroke-linecap:square;stroke-linejoin:round;stroke-miterlimit:10;}
	
		.st37{clip-path:url(#SVGID_76_);fill-rule:evenodd;clip-rule:evenodd;fill:#DBE4FF;stroke:#FFFFFF;stroke-linecap:square;stroke-linejoin:round;stroke-miterlimit:10;}
	
		.st38{clip-path:url(#SVGID_78_);fill-rule:evenodd;clip-rule:evenodd;fill:#DBE4FF;stroke:#FFFFFF;stroke-linecap:square;stroke-linejoin:round;stroke-miterlimit:10;}
	
		.st39{clip-path:url(#SVGID_80_);fill-rule:evenodd;clip-rule:evenodd;fill:#DBE4FF;stroke:#FFFFFF;stroke-linecap:square;stroke-linejoin:round;stroke-miterlimit:10;}
	
		.st40{clip-path:url(#SVGID_82_);fill-rule:evenodd;clip-rule:evenodd;fill:#DBE4FF;stroke:#FFFFFF;stroke-linecap:square;stroke-linejoin:round;stroke-miterlimit:10;}
	
		.st41{clip-path:url(#SVGID_84_);fill-rule:evenodd;clip-rule:evenodd;fill:#DBE4FF;stroke:#FFFFFF;stroke-linecap:square;stroke-linejoin:round;stroke-miterlimit:10;}
	
		.st42{clip-path:url(#SVGID_86_);fill-rule:evenodd;clip-rule:evenodd;fill:#DBE4FF;stroke:#FFFFFF;stroke-linecap:square;stroke-linejoin:round;stroke-miterlimit:10;}
	
		.st43{clip-path:url(#SVGID_88_);fill-rule:evenodd;clip-rule:evenodd;fill:#DBE4FF;stroke:#FFFFFF;stroke-linecap:square;stroke-linejoin:round;stroke-miterlimit:10;}
	
		.st44{clip-path:url(#SVGID_90_);fill-rule:evenodd;clip-rule:evenodd;fill:#DBE4FF;stroke:#FFFFFF;stroke-linecap:square;stroke-linejoin:round;stroke-miterlimit:10;}
	
		.st45{clip-path:url(#SVGID_92_);fill-rule:evenodd;clip-rule:evenodd;fill:#DBE4FF;stroke:#FFFFFF;stroke-linecap:square;stroke-linejoin:round;stroke-miterlimit:10;}
	
		.st46{clip-path:url(#SVGID_94_);fill-rule:evenodd;clip-rule:evenodd;fill:#DBE4FF;stroke:#FFFFFF;stroke-linecap:square;stroke-linejoin:round;stroke-miterlimit:10;}
	
		.st47{clip-path:url(#SVGID_96_);fill-rule:evenodd;clip-rule:evenodd;fill:#DBE4FF;stroke:#FFFFFF;stroke-linecap:square;stroke-linejoin:round;stroke-miterlimit:10;}
	
		.st48{clip-path:url(#SVGID_98_);fill-rule:evenodd;clip-rule:evenodd;fill:#DBE4FF;stroke:#FFFFFF;stroke-linecap:square;stroke-linejoin:round;stroke-miterlimit:10;}
	
		.st49{clip-path:url(#SVGID_100_);fill-rule:evenodd;clip-rule:evenodd;fill:#DBE4FF;stroke:#FFFFFF;stroke-linecap:square;stroke-linejoin:round;stroke-miterlimit:10;}
	
		.st50{clip-path:url(#SVGID_102_);fill-rule:evenodd;clip-rule:evenodd;fill:#DBE4FF;stroke:#FFFFFF;stroke-linecap:square;stroke-linejoin:round;stroke-miterlimit:10;}
	.st51{fill:none;stroke:#FFFFFF;stroke-linecap:square;stroke-linejoin:round;stroke-miterlimit:10;}
	.st52{fill:none;}
	.st53{enable-background:new    ;}
	.st54{fill:none;stroke:#FFFFFF;stroke-width:4;stroke-miterlimit:10;}
	.st55{fill:none;stroke:#DBE4FF;stroke-width:4;stroke-miterlimit:10;}
</style>
<g id="Roku_1_">
	<g id="Roku">
		<path id="XMLID_5_" class="st0" d="M506.6,272.7c0-9.2-7.4-16.7-16.5-16.7h-8.2v33.2h8.2C499.1,289.3,506.6,281.8,506.6,272.7
			 M543.8,338.9h-30.1l-23.9-33.1h-8v33h-26.5v-99.3h37.9c21.9,0,39.7,14.9,39.7,33.2c0,11.2-6.8,21.1-17.3,27.2L543.8,338.9"/>
		<path id="XMLID_8_" class="st0" d="M573.7,278.7c-7,0-12.9,9.5-12.9,21.3s6,21.3,12.9,21.3c7.2,0,13.1-9.5,13.1-21.3
			S580.8,278.7,573.7,278.7 M614.5,300c0,22.5-18.3,40.5-40.8,40.5s-40.6-18-40.6-40.5s18.2-40.5,40.6-40.5
			C596.2,259.5,614.5,277.5,614.5,300"/>
		<path id="XMLID_9_" class="st0" d="M676.6,261.1l-30.5,30.5V261h-26.5v77.8h26.5v-31.6l31.9,31.6h33.3l-40.5-40.5l33.5-33.5V311
			c0,15.3,9.2,29.5,32.4,29.5c11,0,21.1-6.3,26-11.9l11.9,10.3h5.7v-77.7h-26.5v40.5v9.8c-3,5.2-7.1,8.5-13.6,8.5s-9.5-3.9-9.5-16.2
			v-3.3v-39.3h-54.1V261.1z"/>
	</g>
</g>
<g id="flashback">
	<g id="symbol">
		<g>
			<g>
				<g>
					<polygon id="SVGID_3_" class="st0" points="47,106.2 2.4,151.9 1.7,98.4 20,79.8 1.3,61.5 0.5,0.5 97.3,94.8 13.1,181.4 
						13.4,208.6 103.9,115.7 96.3,108.2 103.4,100.9 118.5,115.5 3.4,233.5 2.7,177.3 82.7,95 11.1,25.2 11.5,57.2 34.5,79.6 
						12.1,102.6 12.4,127 46.8,91.6 62.4,106.8 55.2,114.1 					"/>
				</g>
				<g>
					<defs>
						<polygon id="SVGID_2_" points="47,106.2 2.4,151.9 1.7,98.4 20,79.8 1.3,61.5 0.5,0.5 97.3,94.8 13.1,181.4 13.4,208.6 
							103.9,115.7 96.3,108.2 103.4,100.9 118.5,115.5 3.4,233.5 2.7,177.3 82.7,95 11.1,25.2 11.5,57.2 34.5,79.6 12.1,102.6 
							12.4,127 46.8,91.6 62.4,106.8 55.2,114.1 						"/>
					</defs>
					<clipPath id="SVGID_4_">
						<use xlink:href="#SVGID_2_"  style="overflow:visible;"/>
					</clipPath>
					<polygon class="st1" points="118.5,115.5 3.4,233.5 -114.5,118.5 0.5,0.5 118.5,115.5 113.8,115.6 3.4,228.8 -109.9,118.4 
						0.6,5.2 113.8,115.6 					"/>
				</g>
				<g>
					<defs>
						<polygon id="SVGID_5_" points="47,106.2 2.4,151.9 1.7,98.4 20,79.8 1.3,61.5 0.5,0.5 97.3,94.8 13.1,181.4 13.4,208.6 
							103.9,115.7 96.3,108.2 103.4,100.9 118.5,115.5 3.4,233.5 2.7,177.3 82.7,95 11.1,25.2 11.5,57.2 34.5,79.6 12.1,102.6 
							12.4,127 46.8,91.6 62.4,106.8 55.2,114.1 						"/>
					</defs>
					<clipPath id="SVGID_6_">
						<use xlink:href="#SVGID_5_"  style="overflow:visible;"/>
					</clipPath>
					<polygon class="st2" points="116.1,115.6 3.4,231.2 -112.2,118.4 0.5,2.8 116.1,115.6 111.5,115.6 3.4,226.5 -107.5,118.4 
						0.6,7.5 111.5,115.6 					"/>
				</g>
				<g>
					<defs>
						<polygon id="SVGID_7_" points="47,106.2 2.4,151.9 1.7,98.4 20,79.8 1.3,61.5 0.5,0.5 97.3,94.8 13.1,181.4 13.4,208.6 
							103.9,115.7 96.3,108.2 103.4,100.9 118.5,115.5 3.4,233.5 2.7,177.3 82.7,95 11.1,25.2 11.5,57.2 34.5,79.6 12.1,102.6 
							12.4,127 46.8,91.6 62.4,106.8 55.2,114.1 						"/>
					</defs>
					<clipPath id="SVGID_8_">
						<use xlink:href="#SVGID_7_"  style="overflow:visible;"/>
					</clipPath>
					<polygon class="st3" points="113.8,115.6 3.4,228.8 -109.9,118.4 0.6,5.2 113.8,115.6 109.1,115.6 3.3,224.2 -105.2,118.4 
						0.6,9.8 109.1,115.6 					"/>
				</g>
				<g>
					<defs>
						<polygon id="SVGID_9_" points="47,106.2 2.4,151.9 1.7,98.4 20,79.8 1.3,61.5 0.5,0.5 97.3,94.8 13.1,181.4 13.4,208.6 
							103.9,115.7 96.3,108.2 103.4,100.9 118.5,115.5 3.4,233.5 2.7,177.3 82.7,95 11.1,25.2 11.5,57.2 34.5,79.6 12.1,102.6 
							12.4,127 46.8,91.6 62.4,106.8 55.2,114.1 						"/>
					</defs>
					<clipPath id="SVGID_10_">
						<use xlink:href="#SVGID_9_"  style="overflow:visible;"/>
					</clipPath>
					<polygon class="st4" points="111.5,115.6 3.4,226.5 -107.5,118.4 0.6,7.5 111.5,115.6 106.8,115.7 3.3,221.8 -102.9,118.3 
						0.6,12.2 106.8,115.7 					"/>
				</g>
				<g>
					<defs>
						<polygon id="SVGID_11_" points="47,106.2 2.4,151.9 1.7,98.4 20,79.8 1.3,61.5 0.5,0.5 97.3,94.8 13.1,181.4 13.4,208.6 
							103.9,115.7 96.3,108.2 103.4,100.9 118.5,115.5 3.4,233.5 2.7,177.3 82.7,95 11.1,25.2 11.5,57.2 34.5,79.6 12.1,102.6 
							12.4,127 46.8,91.6 62.4,106.8 55.2,114.1 						"/>
					</defs>
					<clipPath id="SVGID_12_">
						<use xlink:href="#SVGID_11_"  style="overflow:visible;"/>
					</clipPath>
					<polygon class="st5" points="109.1,115.6 3.3,224.2 -105.2,118.4 0.6,9.8 109.1,115.6 104.5,115.7 3.3,219.5 -100.5,118.3 
						0.7,14.5 104.5,115.7 					"/>
				</g>
				<g>
					<defs>
						<polygon id="SVGID_13_" points="47,106.2 2.4,151.9 1.7,98.4 20,79.8 1.3,61.5 0.5,0.5 97.3,94.8 13.1,181.4 13.4,208.6 
							103.9,115.7 96.3,108.2 103.4,100.9 118.5,115.5 3.4,233.5 2.7,177.3 82.7,95 11.1,25.2 11.5,57.2 34.5,79.6 12.1,102.6 
							12.4,127 46.8,91.6 62.4,106.8 55.2,114.1 						"/>
					</defs>
					<clipPath id="SVGID_14_">
						<use xlink:href="#SVGID_13_"  style="overflow:visible;"/>
					</clipPath>
					<polygon class="st6" points="106.8,115.7 3.3,221.8 -102.9,118.3 0.6,12.1 106.8,115.7 102.2,115.7 3.2,217.2 -98.2,118.3 
						0.7,16.8 102.2,115.7 					"/>
				</g>
				<g>
					<defs>
						<polygon id="SVGID_15_" points="47,106.2 2.4,151.9 1.7,98.4 20,79.8 1.3,61.5 0.5,0.5 97.3,94.8 13.1,181.4 13.4,208.6 
							103.9,115.7 96.3,108.2 103.4,100.9 118.5,115.5 3.4,233.5 2.7,177.3 82.7,95 11.1,25.2 11.5,57.2 34.5,79.6 12.1,102.6 
							12.4,127 46.8,91.6 62.4,106.8 55.2,114.1 						"/>
					</defs>
					<clipPath id="SVGID_16_">
						<use xlink:href="#SVGID_15_"  style="overflow:visible;"/>
					</clipPath>
					<polygon class="st7" points="104.5,115.7 3.3,219.5 -100.5,118.3 0.7,14.5 104.5,115.7 99.8,115.8 3.2,214.9 -95.9,118.2 
						0.7,19.1 99.8,115.8 					"/>
				</g>
				<g>
					<defs>
						<polygon id="SVGID_17_" points="47,106.2 2.4,151.9 1.7,98.4 20,79.8 1.3,61.5 0.5,0.5 97.3,94.8 13.1,181.4 13.4,208.6 
							103.9,115.7 96.3,108.2 103.4,100.9 118.5,115.5 3.4,233.5 2.7,177.3 82.7,95 11.1,25.2 11.5,57.2 34.5,79.6 12.1,102.6 
							12.4,127 46.8,91.6 62.4,106.8 55.2,114.1 						"/>
					</defs>
					<clipPath id="SVGID_18_">
						<use xlink:href="#SVGID_17_"  style="overflow:visible;"/>
					</clipPath>
					<polygon class="st8" points="102.2,115.7 3.2,217.2 -98.2,118.3 0.7,16.8 102.2,115.7 97.5,115.8 3.2,212.5 -93.6,118.2 
						0.8,21.5 97.5,115.8 					"/>
				</g>
				<g>
					<defs>
						<polygon id="SVGID_19_" points="47,106.2 2.4,151.9 1.7,98.4 20,79.8 1.3,61.5 0.5,0.5 97.3,94.8 13.1,181.4 13.4,208.6 
							103.9,115.7 96.3,108.2 103.4,100.9 118.5,115.5 3.4,233.5 2.7,177.3 82.7,95 11.1,25.2 11.5,57.2 34.5,79.6 12.1,102.6 
							12.4,127 46.8,91.6 62.4,106.8 55.2,114.1 						"/>
					</defs>
					<clipPath id="SVGID_20_">
						<use xlink:href="#SVGID_19_"  style="overflow:visible;"/>
					</clipPath>
					<polygon class="st9" points="99.8,115.8 3.2,214.9 -95.9,118.2 0.7,19.1 99.8,115.8 95.2,115.8 3.1,210.2 -91.2,118.2 
						0.8,23.8 95.2,115.8 					"/>
				</g>
				<g>
					<defs>
						<polygon id="SVGID_21_" points="47,106.2 2.4,151.9 1.7,98.4 20,79.8 1.3,61.5 0.5,0.5 97.3,94.8 13.1,181.4 13.4,208.6 
							103.9,115.7 96.3,108.2 103.4,100.9 118.5,115.5 3.4,233.5 2.7,177.3 82.7,95 11.1,25.2 11.5,57.2 34.5,79.6 12.1,102.6 
							12.4,127 46.8,91.6 62.4,106.8 55.2,114.1 						"/>
					</defs>
					<clipPath id="SVGID_22_">
						<use xlink:href="#SVGID_21_"  style="overflow:visible;"/>
					</clipPath>
					<polygon class="st10" points="97.5,115.8 3.2,212.5 -93.6,118.2 0.8,21.5 97.5,115.8 92.8,115.9 3.1,207.9 -88.9,118.1 
						0.8,26.1 92.8,115.9 					"/>
				</g>
				<g>
					<defs>
						<polygon id="SVGID_23_" points="47,106.2 2.4,151.9 1.7,98.4 20,79.8 1.3,61.5 0.5,0.5 97.3,94.8 13.1,181.4 13.4,208.6 
							103.9,115.7 96.3,108.2 103.4,100.9 118.5,115.5 3.4,233.5 2.7,177.3 82.7,95 11.1,25.2 11.5,57.2 34.5,79.6 12.1,102.6 
							12.4,127 46.8,91.6 62.4,106.8 55.2,114.1 						"/>
					</defs>
					<clipPath id="SVGID_24_">
						<use xlink:href="#SVGID_23_"  style="overflow:visible;"/>
					</clipPath>
					<polygon class="st11" points="95.2,115.8 3.1,210.2 -91.2,118.2 0.8,23.8 95.2,115.8 90.5,115.9 3.1,205.5 -86.6,118.1 
						0.9,28.5 90.5,115.9 					"/>
				</g>
				<g>
					<defs>
						<polygon id="SVGID_25_" points="47,106.2 2.4,151.9 1.7,98.4 20,79.8 1.3,61.5 0.5,0.5 97.3,94.8 13.1,181.4 13.4,208.6 
							103.9,115.7 96.3,108.2 103.4,100.9 118.5,115.5 3.4,233.5 2.7,177.3 82.7,95 11.1,25.2 11.5,57.2 34.5,79.6 12.1,102.6 
							12.4,127 46.8,91.6 62.4,106.8 55.2,114.1 						"/>
					</defs>
					<clipPath id="SVGID_26_">
						<use xlink:href="#SVGID_25_"  style="overflow:visible;"/>
					</clipPath>
					<polygon class="st12" points="92.8,115.9 3.1,207.9 -88.9,118.1 0.8,26.1 92.8,115.9 88.2,115.9 3.1,203.2 -84.2,118.1 
						0.9,30.8 88.2,115.9 					"/>
				</g>
				<g>
					<defs>
						<polygon id="SVGID_27_" points="47,106.2 2.4,151.9 1.7,98.4 20,79.8 1.3,61.5 0.5,0.5 97.3,94.8 13.1,181.4 13.4,208.6 
							103.9,115.7 96.3,108.2 103.4,100.9 118.5,115.5 3.4,233.5 2.7,177.3 82.7,95 11.1,25.2 11.5,57.2 34.5,79.6 12.1,102.6 
							12.4,127 46.8,91.6 62.4,106.8 55.2,114.1 						"/>
					</defs>
					<clipPath id="SVGID_28_">
						<use xlink:href="#SVGID_27_"  style="overflow:visible;"/>
					</clipPath>
					<polygon class="st13" points="90.5,115.9 3.1,205.5 -86.6,118.1 0.9,28.5 90.5,115.9 85.8,115.9 3,200.9 -81.9,118.1 0.9,33.1 
						85.8,115.9 					"/>
				</g>
				<g>
					<defs>
						<polygon id="SVGID_29_" points="47,106.2 2.4,151.9 1.7,98.4 20,79.8 1.3,61.5 0.5,0.5 97.3,94.8 13.1,181.4 13.4,208.6 
							103.9,115.7 96.3,108.2 103.4,100.9 118.5,115.5 3.4,233.5 2.7,177.3 82.7,95 11.1,25.2 11.5,57.2 34.5,79.6 12.1,102.6 
							12.4,127 46.8,91.6 62.4,106.8 55.2,114.1 						"/>
					</defs>
					<clipPath id="SVGID_30_">
						<use xlink:href="#SVGID_29_"  style="overflow:visible;"/>
					</clipPath>
					<polygon class="st14" points="88.2,115.9 3.1,203.2 -84.2,118.1 0.9,30.8 88.2,115.9 83.5,116 3,198.5 -79.6,118 0.9,35.5 
						83.5,116 					"/>
				</g>
				<g>
					<defs>
						<polygon id="SVGID_31_" points="47,106.2 2.4,151.9 1.7,98.4 20,79.8 1.3,61.5 0.5,0.5 97.3,94.8 13.1,181.4 13.4,208.6 
							103.9,115.7 96.3,108.2 103.4,100.9 118.5,115.5 3.4,233.5 2.7,177.3 82.7,95 11.1,25.2 11.5,57.2 34.5,79.6 12.1,102.6 
							12.4,127 46.8,91.6 62.4,106.8 55.2,114.1 						"/>
					</defs>
					<clipPath id="SVGID_32_">
						<use xlink:href="#SVGID_31_"  style="overflow:visible;"/>
					</clipPath>
					<polygon class="st15" points="85.8,115.9 3,200.9 -81.9,118.1 0.9,33.1 85.8,115.9 81.2,116 3,196.2 -77.2,118 1,37.8 
						81.2,116 					"/>
				</g>
				<g>
					<defs>
						<polygon id="SVGID_33_" points="47,106.2 2.4,151.9 1.7,98.4 20,79.8 1.3,61.5 0.5,0.5 97.3,94.8 13.1,181.4 13.4,208.6 
							103.9,115.7 96.3,108.2 103.4,100.9 118.5,115.5 3.4,233.5 2.7,177.3 82.7,95 11.1,25.2 11.5,57.2 34.5,79.6 12.1,102.6 
							12.4,127 46.8,91.6 62.4,106.8 55.2,114.1 						"/>
					</defs>
					<clipPath id="SVGID_34_">
						<use xlink:href="#SVGID_33_"  style="overflow:visible;"/>
					</clipPath>
					<polygon class="st16" points="83.5,116 3,198.5 -79.6,118 0.9,35.4 83.5,116 78.9,116 2.9,193.9 -74.9,118 1,40.1 78.9,116 
											"/>
				</g>
				<g>
					<defs>
						<polygon id="SVGID_35_" points="47,106.2 2.4,151.9 1.7,98.4 20,79.8 1.3,61.5 0.5,0.5 97.3,94.8 13.1,181.4 13.4,208.6 
							103.9,115.7 96.3,108.2 103.4,100.9 118.5,115.5 3.4,233.5 2.7,177.3 82.7,95 11.1,25.2 11.5,57.2 34.5,79.6 12.1,102.6 
							12.4,127 46.8,91.6 62.4,106.8 55.2,114.1 						"/>
					</defs>
					<clipPath id="SVGID_36_">
						<use xlink:href="#SVGID_35_"  style="overflow:visible;"/>
					</clipPath>
					<polygon class="st17" points="81.2,116 3,196.2 -77.2,118 1,37.8 81.2,116 76.5,116.1 2.9,191.6 -72.6,117.9 1,42.4 
						76.5,116.1 					"/>
				</g>
				<g>
					<defs>
						<polygon id="SVGID_37_" points="47,106.2 2.4,151.9 1.7,98.4 20,79.8 1.3,61.5 0.5,0.5 97.3,94.8 13.1,181.4 13.4,208.6 
							103.9,115.7 96.3,108.2 103.4,100.9 118.5,115.5 3.4,233.5 2.7,177.3 82.7,95 11.1,25.2 11.5,57.2 34.5,79.6 12.1,102.6 
							12.4,127 46.8,91.6 62.4,106.8 55.2,114.1 						"/>
					</defs>
					<clipPath id="SVGID_38_">
						<use xlink:href="#SVGID_37_"  style="overflow:visible;"/>
					</clipPath>
					<polygon class="st18" points="78.9,116 2.9,193.9 -74.9,118 1,40.1 78.9,116 74.2,116.1 2.9,189.2 -70.3,117.9 1.1,44.8 
						74.2,116.1 					"/>
				</g>
				<g>
					<defs>
						<polygon id="SVGID_39_" points="47,106.2 2.4,151.9 1.7,98.4 20,79.8 1.3,61.5 0.5,0.5 97.3,94.8 13.1,181.4 13.4,208.6 
							103.9,115.7 96.3,108.2 103.4,100.9 118.5,115.5 3.4,233.5 2.7,177.3 82.7,95 11.1,25.2 11.5,57.2 34.5,79.6 12.1,102.6 
							12.4,127 46.8,91.6 62.4,106.8 55.2,114.1 						"/>
					</defs>
					<clipPath id="SVGID_40_">
						<use xlink:href="#SVGID_39_"  style="overflow:visible;"/>
					</clipPath>
					<polygon class="st19" points="76.5,116.1 2.9,191.6 -72.6,117.9 1,42.4 76.5,116.1 71.9,116.1 2.9,186.9 -67.9,117.9 1.1,47.1 
						71.9,116.1 					"/>
				</g>
				<g>
					<defs>
						<polygon id="SVGID_41_" points="47,106.2 2.4,151.9 1.7,98.4 20,79.8 1.3,61.5 0.5,0.5 97.3,94.8 13.1,181.4 13.4,208.6 
							103.9,115.7 96.3,108.2 103.4,100.9 118.5,115.5 3.4,233.5 2.7,177.3 82.7,95 11.1,25.2 11.5,57.2 34.5,79.6 12.1,102.6 
							12.4,127 46.8,91.6 62.4,106.8 55.2,114.1 						"/>
					</defs>
					<clipPath id="SVGID_42_">
						<use xlink:href="#SVGID_41_"  style="overflow:visible;"/>
					</clipPath>
					<polygon class="st20" points="74.2,116.1 2.9,189.2 -70.3,117.9 1.1,44.8 74.2,116.1 69.5,116.1 2.8,184.6 -65.6,117.8 
						1.1,49.4 69.5,116.1 					"/>
				</g>
				<g>
					<defs>
						<polygon id="SVGID_43_" points="47,106.2 2.4,151.9 1.7,98.4 20,79.8 1.3,61.5 0.5,0.5 97.3,94.8 13.1,181.4 13.4,208.6 
							103.9,115.7 96.3,108.2 103.4,100.9 118.5,115.5 3.4,233.5 2.7,177.3 82.7,95 11.1,25.2 11.5,57.2 34.5,79.6 12.1,102.6 
							12.4,127 46.8,91.6 62.4,106.8 55.2,114.1 						"/>
					</defs>
					<clipPath id="SVGID_44_">
						<use xlink:href="#SVGID_43_"  style="overflow:visible;"/>
					</clipPath>
					<polygon class="st21" points="71.9,116.1 2.9,186.9 -67.9,117.9 1.1,47.1 71.9,116.1 67.2,116.2 2.8,182.2 -63.3,117.8 
						1.1,51.8 67.2,116.2 					"/>
				</g>
				<g>
					<defs>
						<polygon id="SVGID_45_" points="47,106.2 2.4,151.9 1.7,98.4 20,79.8 1.3,61.5 0.5,0.5 97.3,94.8 13.1,181.4 13.4,208.6 
							103.9,115.7 96.3,108.2 103.4,100.9 118.5,115.5 3.4,233.5 2.7,177.3 82.7,95 11.1,25.2 11.5,57.2 34.5,79.6 12.1,102.6 
							12.4,127 46.8,91.6 62.4,106.8 55.2,114.1 						"/>
					</defs>
					<clipPath id="SVGID_46_">
						<use xlink:href="#SVGID_45_"  style="overflow:visible;"/>
					</clipPath>
					<polygon class="st22" points="69.5,116.1 2.8,184.6 -65.6,117.9 1.1,49.4 69.5,116.1 64.9,116.2 2.8,179.9 -60.9,117.8 
						1.2,54.1 64.9,116.2 					"/>
				</g>
				<g>
					<defs>
						<polygon id="SVGID_47_" points="47,106.2 2.4,151.9 1.7,98.4 20,79.8 1.3,61.5 0.5,0.5 97.3,94.8 13.1,181.4 13.4,208.6 
							103.9,115.7 96.3,108.2 103.4,100.9 118.5,115.5 3.4,233.5 2.7,177.3 82.7,95 11.1,25.2 11.5,57.2 34.5,79.6 12.1,102.6 
							12.4,127 46.8,91.6 62.4,106.8 55.2,114.1 						"/>
					</defs>
					<clipPath id="SVGID_48_">
						<use xlink:href="#SVGID_47_"  style="overflow:visible;"/>
					</clipPath>
					<polygon class="st23" points="67.2,116.2 2.8,182.2 -63.3,117.8 1.1,51.8 67.2,116.2 62.5,116.2 2.7,177.6 -58.6,117.8 
						1.2,56.4 62.5,116.2 					"/>
				</g>
				<g>
					<defs>
						<polygon id="SVGID_49_" points="47,106.2 2.4,151.9 1.7,98.4 20,79.8 1.3,61.5 0.5,0.5 97.3,94.8 13.1,181.4 13.4,208.6 
							103.9,115.7 96.3,108.2 103.4,100.9 118.5,115.5 3.4,233.5 2.7,177.3 82.7,95 11.1,25.2 11.5,57.2 34.5,79.6 12.1,102.6 
							12.4,127 46.8,91.6 62.4,106.8 55.2,114.1 						"/>
					</defs>
					<clipPath id="SVGID_50_">
						<use xlink:href="#SVGID_49_"  style="overflow:visible;"/>
					</clipPath>
					<polygon class="st24" points="64.9,116.2 2.8,179.9 -60.9,117.8 1.2,54.1 64.9,116.2 60.2,116.3 2.7,175.2 -56.3,117.7 
						1.2,58.8 60.2,116.3 					"/>
				</g>
				<g>
					<defs>
						<polygon id="SVGID_51_" points="47,106.2 2.4,151.9 1.7,98.4 20,79.8 1.3,61.5 0.5,0.5 97.3,94.8 13.1,181.4 13.4,208.6 
							103.9,115.7 96.3,108.2 103.4,100.9 118.5,115.5 3.4,233.5 2.7,177.3 82.7,95 11.1,25.2 11.5,57.2 34.5,79.6 12.1,102.6 
							12.4,127 46.8,91.6 62.4,106.8 55.2,114.1 						"/>
					</defs>
					<clipPath id="SVGID_52_">
						<use xlink:href="#SVGID_51_"  style="overflow:visible;"/>
					</clipPath>
					<polygon class="st25" points="62.5,116.2 2.7,177.6 -58.6,117.8 1.2,56.4 62.5,116.2 57.9,116.3 2.7,172.9 -53.9,117.7 
						1.3,61.1 57.9,116.3 					"/>
				</g>
				<g>
					<defs>
						<polygon id="SVGID_53_" points="47,106.2 2.4,151.9 1.7,98.4 20,79.8 1.3,61.5 0.5,0.5 97.3,94.8 13.1,181.4 13.4,208.6 
							103.9,115.7 96.3,108.2 103.4,100.9 118.5,115.5 3.4,233.5 2.7,177.3 82.7,95 11.1,25.2 11.5,57.2 34.5,79.6 12.1,102.6 
							12.4,127 46.8,91.6 62.4,106.8 55.2,114.1 						"/>
					</defs>
					<clipPath id="SVGID_54_">
						<use xlink:href="#SVGID_53_"  style="overflow:visible;"/>
					</clipPath>
					<polygon class="st26" points="60.2,116.3 2.7,175.2 -56.3,117.7 1.2,58.7 60.2,116.3 55.6,116.3 2.6,170.6 -51.6,117.7 
						1.3,63.4 55.6,116.3 					"/>
				</g>
				<g>
					<defs>
						<polygon id="SVGID_55_" points="47,106.2 2.4,151.9 1.7,98.4 20,79.8 1.3,61.5 0.5,0.5 97.3,94.8 13.1,181.4 13.4,208.6 
							103.9,115.7 96.3,108.2 103.4,100.9 118.5,115.5 3.4,233.5 2.7,177.3 82.7,95 11.1,25.2 11.5,57.2 34.5,79.6 12.1,102.6 
							12.4,127 46.8,91.6 62.4,106.8 55.2,114.1 						"/>
					</defs>
					<clipPath id="SVGID_56_">
						<use xlink:href="#SVGID_55_"  style="overflow:visible;"/>
					</clipPath>
					<polygon class="st27" points="57.9,116.3 2.7,172.9 -53.9,117.7 1.3,61.1 57.9,116.3 53.2,116.4 2.6,168.3 -49.3,117.6 
						1.3,65.7 53.2,116.4 					"/>
				</g>
				<g>
					<defs>
						<polygon id="SVGID_57_" points="47,106.2 2.4,151.9 1.7,98.4 20,79.8 1.3,61.5 0.5,0.5 97.3,94.8 13.1,181.4 13.4,208.6 
							103.9,115.7 96.3,108.2 103.4,100.9 118.5,115.5 3.4,233.5 2.7,177.3 82.7,95 11.1,25.2 11.5,57.2 34.5,79.6 12.1,102.6 
							12.4,127 46.8,91.6 62.4,106.8 55.2,114.1 						"/>
					</defs>
					<clipPath id="SVGID_58_">
						<use xlink:href="#SVGID_57_"  style="overflow:visible;"/>
					</clipPath>
					<polygon class="st28" points="55.6,116.3 2.6,170.6 -51.6,117.7 1.3,63.4 55.6,116.3 50.9,116.4 2.6,165.9 -47,117.6 1.4,68.1 
						50.9,116.4 					"/>
				</g>
				<g>
					<defs>
						<polygon id="SVGID_59_" points="47,106.2 2.4,151.9 1.7,98.4 20,79.8 1.3,61.5 0.5,0.5 97.3,94.8 13.1,181.4 13.4,208.6 
							103.9,115.7 96.3,108.2 103.4,100.9 118.5,115.5 3.4,233.5 2.7,177.3 82.7,95 11.1,25.2 11.5,57.2 34.5,79.6 12.1,102.6 
							12.4,127 46.8,91.6 62.4,106.8 55.2,114.1 						"/>
					</defs>
					<clipPath id="SVGID_60_">
						<use xlink:href="#SVGID_59_"  style="overflow:visible;"/>
					</clipPath>
					<polygon class="st29" points="53.2,116.4 2.6,168.3 -49.3,117.6 1.3,65.7 53.2,116.4 48.6,116.4 2.6,163.6 -44.6,117.6 
						1.4,70.4 48.6,116.4 					"/>
				</g>
				<g>
					<defs>
						<polygon id="SVGID_61_" points="47,106.2 2.4,151.9 1.7,98.4 20,79.8 1.3,61.5 0.5,0.5 97.3,94.8 13.1,181.4 13.4,208.6 
							103.9,115.7 96.3,108.2 103.4,100.9 118.5,115.5 3.4,233.5 2.7,177.3 82.7,95 11.1,25.2 11.5,57.2 34.5,79.6 12.1,102.6 
							12.4,127 46.8,91.6 62.4,106.8 55.2,114.1 						"/>
					</defs>
					<clipPath id="SVGID_62_">
						<use xlink:href="#SVGID_61_"  style="overflow:visible;"/>
					</clipPath>
					<polygon class="st30" points="50.9,116.4 2.6,165.9 -47,117.6 1.4,68.1 50.9,116.4 46.2,116.4 2.5,161.3 -42.3,117.6 1.4,72.7 
						46.2,116.4 					"/>
				</g>
				<g>
					<defs>
						<polygon id="SVGID_63_" points="47,106.2 2.4,151.9 1.7,98.4 20,79.8 1.3,61.5 0.5,0.5 97.3,94.8 13.1,181.4 13.4,208.6 
							103.9,115.7 96.3,108.2 103.4,100.9 118.5,115.5 3.4,233.5 2.7,177.3 82.7,95 11.1,25.2 11.5,57.2 34.5,79.6 12.1,102.6 
							12.4,127 46.8,91.6 62.4,106.8 55.2,114.1 						"/>
					</defs>
					<clipPath id="SVGID_64_">
						<use xlink:href="#SVGID_63_"  style="overflow:visible;"/>
					</clipPath>
					<polygon class="st31" points="48.6,116.4 2.6,163.6 -44.6,117.6 1.4,70.4 48.6,116.4 43.9,116.5 2.5,158.9 -40,117.5 1.4,75.1 
						43.9,116.5 					"/>
				</g>
				<g>
					<defs>
						<polygon id="SVGID_65_" points="47,106.2 2.4,151.9 1.7,98.4 20,79.8 1.3,61.5 0.5,0.5 97.3,94.8 13.1,181.4 13.4,208.6 
							103.9,115.7 96.3,108.2 103.4,100.9 118.5,115.5 3.4,233.5 2.7,177.3 82.7,95 11.1,25.2 11.5,57.2 34.5,79.6 12.1,102.6 
							12.4,127 46.8,91.6 62.4,106.8 55.2,114.1 						"/>
					</defs>
					<clipPath id="SVGID_66_">
						<use xlink:href="#SVGID_65_"  style="overflow:visible;"/>
					</clipPath>
					<polygon class="st32" points="46.2,116.4 2.5,161.3 -42.3,117.6 1.4,72.7 46.2,116.4 41.6,116.5 2.5,156.6 -37.6,117.5 
						1.5,77.4 41.6,116.5 					"/>
				</g>
				<g>
					<defs>
						<polygon id="SVGID_67_" points="47,106.2 2.4,151.9 1.7,98.4 20,79.8 1.3,61.5 0.5,0.5 97.3,94.8 13.1,181.4 13.4,208.6 
							103.9,115.7 96.3,108.2 103.4,100.9 118.5,115.5 3.4,233.5 2.7,177.3 82.7,95 11.1,25.2 11.5,57.2 34.5,79.6 12.1,102.6 
							12.4,127 46.8,91.6 62.4,106.8 55.2,114.1 						"/>
					</defs>
					<clipPath id="SVGID_68_">
						<use xlink:href="#SVGID_67_"  style="overflow:visible;"/>
					</clipPath>
					<polygon class="st33" points="43.9,116.5 2.5,158.9 -40,117.5 1.4,75.1 43.9,116.5 39.2,116.5 2.4,154.3 -35.3,117.5 1.5,79.7 
						39.2,116.5 					"/>
				</g>
				<g>
					<defs>
						<polygon id="SVGID_69_" points="47,106.2 2.4,151.9 1.7,98.4 20,79.8 1.3,61.5 0.5,0.5 97.3,94.8 13.1,181.4 13.4,208.6 
							103.9,115.7 96.3,108.2 103.4,100.9 118.5,115.5 3.4,233.5 2.7,177.3 82.7,95 11.1,25.2 11.5,57.2 34.5,79.6 12.1,102.6 
							12.4,127 46.8,91.6 62.4,106.8 55.2,114.1 						"/>
					</defs>
					<clipPath id="SVGID_70_">
						<use xlink:href="#SVGID_69_"  style="overflow:visible;"/>
					</clipPath>
					<polygon class="st34" points="41.6,116.5 2.5,156.6 -37.6,117.5 1.5,77.4 41.6,116.5 36.9,116.6 2.4,151.9 -33,117.4 1.5,82.1 
						36.9,116.6 					"/>
				</g>
				<g>
					<defs>
						<polygon id="SVGID_71_" points="47,106.2 2.4,151.9 1.7,98.4 20,79.8 1.3,61.5 0.5,0.5 97.3,94.8 13.1,181.4 13.4,208.6 
							103.9,115.7 96.3,108.2 103.4,100.9 118.5,115.5 3.4,233.5 2.7,177.3 82.7,95 11.1,25.2 11.5,57.2 34.5,79.6 12.1,102.6 
							12.4,127 46.8,91.6 62.4,106.8 55.2,114.1 						"/>
					</defs>
					<clipPath id="SVGID_72_">
						<use xlink:href="#SVGID_71_"  style="overflow:visible;"/>
					</clipPath>
					<polygon class="st35" points="39.2,116.5 2.4,154.3 -35.3,117.5 1.5,79.7 39.2,116.5 34.6,116.6 2.4,149.6 -30.6,117.4 
						1.6,84.4 34.6,116.6 					"/>
				</g>
				<g>
					<defs>
						<polygon id="SVGID_73_" points="47,106.2 2.4,151.9 1.7,98.4 20,79.8 1.3,61.5 0.5,0.5 97.3,94.8 13.1,181.4 13.4,208.6 
							103.9,115.7 96.3,108.2 103.4,100.9 118.5,115.5 3.4,233.5 2.7,177.3 82.7,95 11.1,25.2 11.5,57.2 34.5,79.6 12.1,102.6 
							12.4,127 46.8,91.6 62.4,106.8 55.2,114.1 						"/>
					</defs>
					<clipPath id="SVGID_74_">
						<use xlink:href="#SVGID_73_"  style="overflow:visible;"/>
					</clipPath>
					<polygon class="st36" points="36.9,116.6 2.4,151.9 -33,117.4 1.5,82 36.9,116.6 32.3,116.6 2.4,147.3 -28.3,117.4 1.6,86.7 
						32.3,116.6 					"/>
				</g>
				<g>
					<defs>
						<polygon id="SVGID_75_" points="47,106.2 2.4,151.9 1.7,98.4 20,79.8 1.3,61.5 0.5,0.5 97.3,94.8 13.1,181.4 13.4,208.6 
							103.9,115.7 96.3,108.2 103.4,100.9 118.5,115.5 3.4,233.5 2.7,177.3 82.7,95 11.1,25.2 11.5,57.2 34.5,79.6 12.1,102.6 
							12.4,127 46.8,91.6 62.4,106.8 55.2,114.1 						"/>
					</defs>
					<clipPath id="SVGID_76_">
						<use xlink:href="#SVGID_75_"  style="overflow:visible;"/>
					</clipPath>
					<polygon class="st37" points="34.6,116.6 2.4,149.6 -30.6,117.4 1.6,84.4 34.6,116.6 29.9,116.6 2.3,145 -26,117.4 1.6,89 
						29.9,116.6 					"/>
				</g>
				<g>
					<defs>
						<polygon id="SVGID_77_" points="47,106.2 2.4,151.9 1.7,98.4 20,79.8 1.3,61.5 0.5,0.5 97.3,94.8 13.1,181.4 13.4,208.6 
							103.9,115.7 96.3,108.2 103.4,100.9 118.5,115.5 3.4,233.5 2.7,177.3 82.7,95 11.1,25.2 11.5,57.2 34.5,79.6 12.1,102.6 
							12.4,127 46.8,91.6 62.4,106.8 55.2,114.1 						"/>
					</defs>
					<clipPath id="SVGID_78_">
						<use xlink:href="#SVGID_77_"  style="overflow:visible;"/>
					</clipPath>
					<polygon class="st38" points="32.3,116.6 2.4,147.3 -28.3,117.4 1.6,86.7 32.3,116.6 27.6,116.7 2.3,142.6 -23.7,117.3 
						1.6,91.4 27.6,116.7 					"/>
				</g>
				<g>
					<defs>
						<polygon id="SVGID_79_" points="47,106.2 2.4,151.9 1.7,98.4 20,79.8 1.3,61.5 0.5,0.5 97.3,94.8 13.1,181.4 13.4,208.6 
							103.9,115.7 96.3,108.2 103.4,100.9 118.5,115.5 3.4,233.5 2.7,177.3 82.7,95 11.1,25.2 11.5,57.2 34.5,79.6 12.1,102.6 
							12.4,127 46.8,91.6 62.4,106.8 55.2,114.1 						"/>
					</defs>
					<clipPath id="SVGID_80_">
						<use xlink:href="#SVGID_79_"  style="overflow:visible;"/>
					</clipPath>
					<polygon class="st39" points="29.9,116.6 2.3,145 -26,117.4 1.6,89 29.9,116.6 25.3,116.7 2.3,140.3 -21.3,117.3 1.7,93.7 
						25.3,116.7 					"/>
				</g>
				<g>
					<defs>
						<polygon id="SVGID_81_" points="47,106.2 2.4,151.9 1.7,98.4 20,79.8 1.3,61.5 0.5,0.5 97.3,94.8 13.1,181.4 13.4,208.6 
							103.9,115.7 96.3,108.2 103.4,100.9 118.5,115.5 3.4,233.5 2.7,177.3 82.7,95 11.1,25.2 11.5,57.2 34.5,79.6 12.1,102.6 
							12.4,127 46.8,91.6 62.4,106.8 55.2,114.1 						"/>
					</defs>
					<clipPath id="SVGID_82_">
						<use xlink:href="#SVGID_81_"  style="overflow:visible;"/>
					</clipPath>
					<polygon class="st40" points="27.6,116.7 2.3,142.6 -23.7,117.3 1.6,91.4 27.6,116.7 22.9,116.7 2.2,138 -19,117.3 1.7,96 
						22.9,116.7 					"/>
				</g>
				<g>
					<defs>
						<polygon id="SVGID_83_" points="47,106.2 2.4,151.9 1.7,98.4 20,79.8 1.3,61.5 0.5,0.5 97.3,94.8 13.1,181.4 13.4,208.6 
							103.9,115.7 96.3,108.2 103.4,100.9 118.5,115.5 3.4,233.5 2.7,177.3 82.7,95 11.1,25.2 11.5,57.2 34.5,79.6 12.1,102.6 
							12.4,127 46.8,91.6 62.4,106.8 55.2,114.1 						"/>
					</defs>
					<clipPath id="SVGID_84_">
						<use xlink:href="#SVGID_83_"  style="overflow:visible;"/>
					</clipPath>
					<polygon class="st41" points="25.3,116.7 2.3,140.3 -21.3,117.3 1.7,93.7 25.3,116.7 20.6,116.8 2.2,135.6 -16.7,117.2 
						1.7,98.4 20.6,116.8 					"/>
				</g>
				<g>
					<defs>
						<polygon id="SVGID_85_" points="47,106.2 2.4,151.9 1.7,98.4 20,79.8 1.3,61.5 0.5,0.5 97.3,94.8 13.1,181.4 13.4,208.6 
							103.9,115.7 96.3,108.2 103.4,100.9 118.5,115.5 3.4,233.5 2.7,177.3 82.7,95 11.1,25.2 11.5,57.2 34.5,79.6 12.1,102.6 
							12.4,127 46.8,91.6 62.4,106.8 55.2,114.1 						"/>
					</defs>
					<clipPath id="SVGID_86_">
						<use xlink:href="#SVGID_85_"  style="overflow:visible;"/>
					</clipPath>
					<polygon class="st42" points="22.9,116.7 2.2,138 -19,117.3 1.7,96 22.9,116.7 18.3,116.8 2.2,133.3 -14.3,117.2 1.8,100.7 
						18.3,116.8 					"/>
				</g>
				<g>
					<defs>
						<polygon id="SVGID_87_" points="47,106.2 2.4,151.9 1.7,98.4 20,79.8 1.3,61.5 0.5,0.5 97.3,94.8 13.1,181.4 13.4,208.6 
							103.9,115.7 96.3,108.2 103.4,100.9 118.5,115.5 3.4,233.5 2.7,177.3 82.7,95 11.1,25.2 11.5,57.2 34.5,79.6 12.1,102.6 
							12.4,127 46.8,91.6 62.4,106.8 55.2,114.1 						"/>
					</defs>
					<clipPath id="SVGID_88_">
						<use xlink:href="#SVGID_87_"  style="overflow:visible;"/>
					</clipPath>
					<polygon class="st43" points="20.6,116.8 2.2,135.6 -16.7,117.2 1.7,98.4 20.6,116.8 15.9,116.8 2.1,131 -12,117.2 1.8,103 
						15.9,116.8 					"/>
				</g>
				<g>
					<defs>
						<polygon id="SVGID_89_" points="47,106.2 2.4,151.9 1.7,98.4 20,79.8 1.3,61.5 0.5,0.5 97.3,94.8 13.1,181.4 13.4,208.6 
							103.9,115.7 96.3,108.2 103.4,100.9 118.5,115.5 3.4,233.5 2.7,177.3 82.7,95 11.1,25.2 11.5,57.2 34.5,79.6 12.1,102.6 
							12.4,127 46.8,91.6 62.4,106.8 55.2,114.1 						"/>
					</defs>
					<clipPath id="SVGID_90_">
						<use xlink:href="#SVGID_89_"  style="overflow:visible;"/>
					</clipPath>
					<polygon class="st44" points="18.3,116.8 2.2,133.3 -14.3,117.2 1.8,100.7 18.3,116.8 13.6,116.8 2.1,128.6 -9.7,117.1 
						1.8,105.3 13.6,116.8 					"/>
				</g>
				<g>
					<defs>
						<polygon id="SVGID_91_" points="47,106.2 2.4,151.9 1.7,98.4 20,79.8 1.3,61.5 0.5,0.5 97.3,94.8 13.1,181.4 13.4,208.6 
							103.9,115.7 96.3,108.2 103.4,100.9 118.5,115.5 3.4,233.5 2.7,177.3 82.7,95 11.1,25.2 11.5,57.2 34.5,79.6 12.1,102.6 
							12.4,127 46.8,91.6 62.4,106.8 55.2,114.1 						"/>
					</defs>
					<clipPath id="SVGID_92_">
						<use xlink:href="#SVGID_91_"  style="overflow:visible;"/>
					</clipPath>
					<polygon class="st45" points="15.9,116.8 2.1,131 -12,117.2 1.8,103 15.9,116.8 11.3,116.9 2.1,126.3 -7.3,117.1 1.9,107.7 
						11.3,116.9 					"/>
				</g>
				<g>
					<defs>
						<polygon id="SVGID_93_" points="47,106.2 2.4,151.9 1.7,98.4 20,79.8 1.3,61.5 0.5,0.5 97.3,94.8 13.1,181.4 13.4,208.6 
							103.9,115.7 96.3,108.2 103.4,100.9 118.5,115.5 3.4,233.5 2.7,177.3 82.7,95 11.1,25.2 11.5,57.2 34.5,79.6 12.1,102.6 
							12.4,127 46.8,91.6 62.4,106.8 55.2,114.1 						"/>
					</defs>
					<clipPath id="SVGID_94_">
						<use xlink:href="#SVGID_93_"  style="overflow:visible;"/>
					</clipPath>
					<polygon class="st46" points="13.6,116.9 2.1,128.6 -9.7,117.1 1.8,105.3 13.6,116.9 9,116.9 2.1,124 -5,117.1 1.9,110 
						9,116.9 					"/>
				</g>
				<g>
					<defs>
						<polygon id="SVGID_95_" points="47,106.2 2.4,151.9 1.7,98.4 20,79.8 1.3,61.5 0.5,0.5 97.3,94.8 13.1,181.4 13.4,208.6 
							103.9,115.7 96.3,108.2 103.4,100.9 118.5,115.5 3.4,233.5 2.7,177.3 82.7,95 11.1,25.2 11.5,57.2 34.5,79.6 12.1,102.6 
							12.4,127 46.8,91.6 62.4,106.8 55.2,114.1 						"/>
					</defs>
					<clipPath id="SVGID_96_">
						<use xlink:href="#SVGID_95_"  style="overflow:visible;"/>
					</clipPath>
					<polygon class="st47" points="11.3,116.9 2.1,126.3 -7.4,117.1 1.9,107.7 11.3,116.9 6.6,116.9 2,121.7 -2.7,117.1 1.9,112.3 
						6.6,116.9 					"/>
				</g>
				<g>
					<defs>
						<polygon id="SVGID_97_" points="47,106.2 2.4,151.9 1.7,98.4 20,79.8 1.3,61.5 0.5,0.5 97.3,94.8 13.1,181.4 13.4,208.6 
							103.9,115.7 96.3,108.2 103.4,100.9 118.5,115.5 3.4,233.5 2.7,177.3 82.7,95 11.1,25.2 11.5,57.2 34.5,79.6 12.1,102.6 
							12.4,127 46.8,91.6 62.4,106.8 55.2,114.1 						"/>
					</defs>
					<clipPath id="SVGID_98_">
						<use xlink:href="#SVGID_97_"  style="overflow:visible;"/>
					</clipPath>
					<polygon class="st48" points="9,116.9 2.1,124 -5,117.1 1.9,110 9,116.9 4.3,117 2,119.3 -0.4,117 1.9,114.7 4.3,117 					"/>
				</g>
				<g>
					<defs>
						<polygon id="SVGID_99_" points="47,106.2 2.4,151.9 1.7,98.4 20,79.8 1.3,61.5 0.5,0.5 97.3,94.8 13.1,181.4 13.4,208.6 
							103.9,115.7 96.3,108.2 103.4,100.9 118.5,115.5 3.4,233.5 2.7,177.3 82.7,95 11.1,25.2 11.5,57.2 34.5,79.6 12.1,102.6 
							12.4,127 46.8,91.6 62.4,106.8 55.2,114.1 						"/>
					</defs>
					<clipPath id="SVGID_100_">
						<use xlink:href="#SVGID_99_"  style="overflow:visible;"/>
					</clipPath>
					<polygon class="st49" points="6.6,116.9 2,121.7 -2.7,117.1 1.9,112.3 6.6,116.9 2,117 2,117 2,117 2,117 2,117 					"/>
				</g>
				<g>
					<defs>
						<polygon id="SVGID_101_" points="47,106.2 2.4,151.9 1.7,98.4 20,79.8 1.3,61.5 0.5,0.5 97.3,94.8 13.1,181.4 13.4,208.6 
							103.9,115.7 96.3,108.2 103.4,100.9 118.5,115.5 3.4,233.5 2.7,177.3 82.7,95 11.1,25.2 11.5,57.2 34.5,79.6 12.1,102.6 
							12.4,127 46.8,91.6 62.4,106.8 55.2,114.1 						"/>
					</defs>
					<clipPath id="SVGID_102_">
						<use xlink:href="#SVGID_101_"  style="overflow:visible;"/>
					</clipPath>
					<polygon class="st50" points="4.3,117 2,119.3 -0.4,117 1.9,114.7 					"/>
				</g>
				<g>
					<polygon id="SVGID_1_" class="st51" points="47,106.2 2.4,151.9 1.7,98.4 20,79.8 1.3,61.5 0.5,0.5 97.3,94.8 13.1,181.4 
						13.4,208.6 103.9,115.7 96.3,108.2 103.4,100.9 118.5,115.5 3.4,233.5 2.7,177.3 82.7,95 11.1,25.2 11.5,57.2 34.5,79.6 
						12.1,102.6 12.4,127 46.8,91.6 62.4,106.8 55.2,114.1 					"/>
				</g>
			</g>
		</g>
	</g>
	<rect x="145.4" y="52" class="st52" width="1011" height="289.4"/>
	<g class="st53">
		<path class="st0" d="M164.3,58h89.4v15.9h-71v43.8h63.1v15.9h-63.1v64.7h-18.3V58z"/>
		<path class="st0" d="M275.3,52h16.5v146.3h-16.5V52z"/>
		<path class="st0" d="M314.3,172.8c0-17.7,15.1-30.8,45-34.2l27.9-3.4v-4c0-13.5-9.8-22.3-26.3-22.3c-15.1,0-25.1,7.4-24.9,19.9
			h-16.7c0-21.3,16.5-34.8,41.8-34.8c26.1,0,42.6,14.7,42.6,37.6v66.7h-16.5v-14.7h-1.8c-7.2,11.5-18.9,17.9-35,17.9
			C328.6,201.4,314.3,190.1,314.3,172.8z M387.2,158.3v-9l-27.9,3.2c-20.5,2.6-28.5,10.5-28.5,19.9c0,9.6,8.4,15.3,21.9,15.3
			C373.2,187.7,387.2,175.2,387.2,158.3z"/>
		<path class="st0" d="M427.9,164.2h15.9c0.2,14.3,11.3,24.1,30.2,24.1c15.1,0,24.9-6.4,24.9-16.9c0-13.1-13.7-14.1-28.9-16.1
			c-18.7-2.2-40.4-7.2-40.4-30c0-19.5,16.3-31.4,40.4-31.4c25.1,0,42.2,13.3,42.2,34h-16.1c-0.2-12.3-10.7-20.1-26.3-20.1
			c-14.5,0-24.5,6.6-24.5,16.9c0,12.5,13.5,13.5,28.5,15.3c18.9,2.4,40.6,7.2,40.6,31.2c0,19.7-15.3,31-41,31
			C444.7,202.2,427.9,188.1,427.9,164.2z"/>
		<path class="st0" d="M540.8,52h16.5v58.5h2c7.2-10.5,18.3-16.7,31.6-16.7c25.5,0,41.8,18.5,41.8,44.2v60.3h-16.5V138
			c0-17.1-10.1-29.3-27.5-29.3c-16.9,0-31.4,12.9-31.4,30.8v58.7h-16.5V52z"/>
		<path class="st0" d="M679.7,182.7h-1.8v15.5h-16.5V52h16.5v60.7h1.8c7.4-12.1,20.9-18.9,37-18.9c29.3,0,51.7,22.7,51.7,54.1
			c0,31.4-22.7,54.3-51.9,54.3C700,202.2,687,195.1,679.7,182.7z M751.9,147.9c0-22.1-15.7-39.2-37.2-39.2
			c-21.7,0-37.4,17.1-37.4,39.2c0,22.1,15.7,39.4,37.4,39.4C736.2,187.3,751.9,170.4,751.9,147.9z"/>
		<path class="st0" d="M785.9,172.8c0-17.7,15.1-30.8,45-34.2l27.9-3.4v-4c0-13.5-9.8-22.3-26.3-22.3c-15.1,0-25.1,7.4-24.9,19.9
			h-16.7c0-21.3,16.5-34.8,41.8-34.8c26.1,0,42.6,14.7,42.6,37.6v66.7h-16.5v-14.7H857c-7.2,11.5-18.9,17.9-35,17.9
			C800.3,201.4,785.9,190.1,785.9,172.8z M858.8,158.3v-9l-27.9,3.2c-20.5,2.6-28.5,10.5-28.5,19.9c0,9.6,8.4,15.3,21.9,15.3
			C844.8,187.7,858.8,175.2,858.8,158.3z"/>
		<path class="st0" d="M898.8,147.9c0-31.4,21.9-54.1,52.3-54.1c24.7,0,45.2,15.5,49,37l-16.1,2.2c-3.6-14.5-17.3-24.3-32.6-24.3
			c-20.5,0-36.2,16.1-36,39.2c0,23.3,15.3,39.4,35.8,39.4c15.7,0,29.1-9.8,33-23.9l16.3,2.2c-4.6,21.3-25.3,36.6-49.4,36.6
			C920.7,202.2,898.6,179.4,898.8,147.9z"/>
		<path class="st0" d="M1025.7,52h16.5v88.8h2l43-43h21.9l-49.6,48.2l50.7,52.3h-22.1l-44-46.8h-2v46.8h-16.5V52z"/>
	</g>
	<line class="st54" x1="169.4" y1="300.4" x2="399.4" y2="300.4"/>
	<line class="st55" x1="833.4" y1="300.4" x2="1106.4" y2="300.4"/>
</g>
</svg>
