<?xml version="1.0" encoding="utf-8"?>
<!-- Generator: Adobe Illustrator 24.1.0, SVG Export Plug-In . SVG Version: 6.00 Build 0)  -->
<svg version="1.1" id="tv" xmlns="http://www.w3.org/2000/svg" xmlns:xlink="http://www.w3.org/1999/xlink" x="0px" y="0px"
	 viewBox="0 0 317.4 367" style="enable-background:new 0 0 317.4 367;" xml:space="preserve">
<style type="text/css">
	.st0{fill:#605DC6;}
</style>
<g id="tv_1_">
	<path class="st0" d="M302.6,367H14.9C6.7,367,0,360.3,0,352.1V160.7c0-8.2,6.7-14.9,14.9-14.9h287.7c8.2,0,14.9,6.7,14.9,14.9
		v191.4C317.4,360.3,310.7,367,302.6,367z M14.9,157c-2,0-3.7,1.7-3.7,3.7v191.4c0,2,1.7,3.7,3.7,3.7h287.7c2,0,3.7-1.7,3.7-3.7
		V160.7c0-2-1.7-3.7-3.7-3.7H14.9z"/>
	<path class="st0" d="M218.4,342.4H38.6c-8.2,0-14.9-6.7-14.9-14.9V185.4c0-8.2,6.7-14.9,14.9-14.9h179.8c8.2,0,14.9,6.7,14.9,14.9
		v142.1C233.3,335.7,226.6,342.4,218.4,342.4z M38.6,181.7c-2,0-3.7,1.7-3.7,3.7v142.1c0,2,1.7,3.7,3.7,3.7h179.8
		c2,0,3.7-1.7,3.7-3.7V185.4c0-2-1.7-3.7-3.7-3.7H38.6z"/>
	<path class="st0" d="M292.4,342.4h-47.9c-3.1,0-5.6-2.5-5.6-5.6c0-3.1,2.5-5.6,5.6-5.6h47.9c3.1,0,5.6,2.5,5.6,5.6
		C298,339.9,295.5,342.4,292.4,342.4z"/>
	<path class="st0" d="M292.4,321.8h-47.9c-3.1,0-5.6-2.5-5.6-5.6c0-3.1,2.5-5.6,5.6-5.6h47.9c3.1,0,5.6,2.5,5.6,5.6
		C298,319.3,295.5,321.8,292.4,321.8z"/>
	<path class="st0" d="M292.4,301.2h-47.9c-3.1,0-5.6-2.5-5.6-5.6c0-3.1,2.5-5.6,5.6-5.6h47.9c3.1,0,5.6,2.5,5.6,5.6
		C298,298.7,295.5,301.2,292.4,301.2z"/>
	<path class="st0" d="M292.4,280.6h-47.9c-3.1,0-5.6-2.5-5.6-5.6c0-3.1,2.5-5.6,5.6-5.6h47.9c3.1,0,5.6,2.5,5.6,5.6
		C298,278.1,295.5,280.6,292.4,280.6z"/>
	<path class="st0" d="M292.4,260h-47.9c-3.1,0-5.6-2.5-5.6-5.6c0-3.1,2.5-5.6,5.6-5.6h47.9c3.1,0,5.6,2.5,5.6,5.6
		C298,257.5,295.5,260,292.4,260z"/>
	<path class="st0" d="M268.5,238.8c-8.8,0-16-7.2-16-16c0-8.8,7.2-16,16-16c8.8,0,16,7.2,16,16C284.5,231.6,277.3,238.8,268.5,238.8
		z M268.5,217.9c-2.7,0-4.9,2.2-4.9,4.9c0,2.7,2.2,4.9,4.9,4.9c2.7,0,4.9-2.2,4.9-4.9C273.3,220.1,271.2,217.9,268.5,217.9z"/>
	<path class="st0" d="M268.5,202.6c-8.8,0-16-7.2-16-16c0-8.8,7.2-16,16-16c8.8,0,16,7.2,16,16C284.5,195.4,277.3,202.6,268.5,202.6
		z M268.5,181.7c-2.7,0-4.9,2.2-4.9,4.9c0,2.7,2.2,4.9,4.9,4.9c2.7,0,4.9-2.2,4.9-4.9C273.3,183.9,271.2,181.7,268.5,181.7z"/>
	<path class="st0" d="M187.3,157H84.8c-3.1,0-5.6-2.5-5.6-5.6c0-13.6,11-24.6,24.6-24.6h64.4c13.6,0,24.6,11,24.6,24.6
		C192.9,154.5,190.4,157,187.3,157z M91.6,145.9h88.9c-2.1-4.7-6.8-7.9-12.3-7.9h-64.4C98.5,138,93.8,141.2,91.6,145.9z"/>
	<path class="st0" d="M136.1,138c-1.9-0.1-3.3-0.8-4.2-2L52.4,42.4c-2-2.3-1.7-5.9,0.6-7.9c2.3-2,5.9-1.7,7.9,0.6l75.7,89.2L271,1.5
		c2.3-2.1,5.8-1.9,7.9,0.4c2.1,2.3,1.9,5.8-0.4,7.9L139.8,136.5C138.8,137.5,137.5,138,136.1,138z"/>
	<path class="st0" d="M68.9,279.2c-1.4,0-2.9-0.5-3.9-1.6c-2.2-2.2-2.2-5.7,0-7.9l61.3-61.3c2.2-2.2,5.7-2.2,7.9,0
		c2.2,2.2,2.2,5.7,0,7.9l-61.3,61.3C71.8,278.7,70.3,279.2,68.9,279.2z"/>
	<path class="st0" d="M126,289.7c-1.4,0-2.9-0.5-3.9-1.6c-2.2-2.2-2.2-5.7,0-7.9l61.3-61.3c2.2-2.2,5.7-2.2,7.9,0
		c2.2,2.2,2.2,5.7,0,7.9L129.9,288C128.9,289.1,127.4,289.7,126,289.7z"/>
</g>
</svg>
