<?xml version="1.0" encoding="utf-8"?>
<!-- Generator: Adobe Illustrator 24.1.0, SVG Export Plug-In . SVG Version: 6.00 Build 0)  -->
<svg version="1.1" id="emma" xmlns="http://www.w3.org/2000/svg" xmlns:xlink="http://www.w3.org/1999/xlink" x="0px" y="0px"
	 viewBox="0 0 131.5 121.8" style="enable-background:new 0 0 131.5 121.8;" xml:space="preserve">
<style type="text/css">
	.st0{fill:#524EC1;}
</style>
<g>
	<g>
		<g>
			<path class="st0" d="M90,81.3c-2.1,0-3.7-1.7-3.7-3.7v-5c0-2.1,1.7-3.7,3.7-3.7c2.1,0,3.7,1.7,3.7,3.7v5
				C93.8,79.6,92.1,81.3,90,81.3z"/>
		</g>
		<g>
			<path class="st0" d="M43.1,81.3c-2.1,0-3.7-1.7-3.7-3.7v-5c0-2.1,1.7-3.7,3.7-3.7s3.7,1.7,3.7,3.7v5
				C46.8,79.6,45.1,81.3,43.1,81.3z"/>
		</g>
	</g>
	<g>
		<path class="st0" d="M66.6,105.7c-5.5,0-10.6-1.7-13.8-4.6c-1-0.9-1.1-2.5-0.2-3.5c0.9-1,2.5-1.1,3.5-0.2
			c2.3,2.1,6.2,3.3,10.5,3.3s8.2-1.2,10.5-3.3c1-0.9,2.6-0.9,3.5,0.2c0.9,1,0.8,2.6-0.2,3.5C77.2,103.9,72,105.7,66.6,105.7z"/>
	</g>
	<g>
		<path class="st0" d="M66.1,121.8c-20.7,0-39.7-13-47.1-32.4c-0.5-1.3,0.1-2.7,1.4-3.2s2.7,0.1,3.2,1.4
			c6.7,17.4,23.8,29.2,42.4,29.2c18.7,0,35.8-11.7,42.5-29.2c0.5-1.3,1.9-1.9,3.2-1.4c1.3,0.5,1.9,1.9,1.4,3.2
			C105.8,108.8,86.8,121.8,66.1,121.8z"/>
	</g>
	<g>
		<g>
			<path class="st0" d="M21.3,91.1h-0.1C5.6,90.4,0,78.6,0,70.8c0-8.5,5.3-14.4,12.9-14.4c1.2,0,2.5,0.2,3.7,0.5
				c1.3,0.4,2.1,1.7,1.8,3.1c-0.4,1.3-1.7,2.1-3.1,1.8c-0.8-0.2-1.6-0.3-2.4-0.3c-5.5,0-7.9,4.7-7.9,9.4C5,75,7.9,85.7,21.4,86.2
				c1.4,0.1,2.4,1.2,2.4,2.6C23.7,90,22.6,91.1,21.3,91.1z"/>
		</g>
		<g>
			<path class="st0" d="M110.9,91c-1.3,0-2.4-1-2.5-2.3c-0.1-1.4,1-2.6,2.3-2.6c12.5-0.8,15.8-10.3,15.8-15.3c0-4.7-2.5-9.4-7.9-9.4
				c-0.4,0-0.8,0-1.2,0.1c-1.4,0.2-2.6-0.8-2.8-2.2c-0.2-1.4,0.8-2.6,2.2-2.8c0.6-0.1,1.2-0.1,1.8-0.1c7.6,0,12.9,5.9,12.9,14.4
				C131.5,78.4,126,90.1,110.9,91L110.9,91z"/>
		</g>
	</g>
	<g>
		<g>
			<path class="st0" d="M117.1,61.5c-1.4,0-2.5-1.1-2.5-2.5c0,0,0-0.1,0-0.2c0-12.2-4.6-23.9-13-32.8c-0.9-1-0.9-2.6,0.1-3.5
				s2.6-0.9,3.5,0.1c9.3,9.9,14.4,22.8,14.4,36.3c0,0,0,0.1,0,0.2C119.6,60.4,118.5,61.5,117.1,61.5z"/>
		</g>
		<g>
			<path class="st0" d="M16,61.8c-1.4,0-2.5-1.1-2.5-2.5v-0.1c0-0.1,0-0.2,0-0.3c0-29.3,23.8-53.1,53.1-53.1c1.4,0,2.5,1.1,2.5,2.5
				s-1.1,2.5-2.5,2.5c-26.5,0-48.1,21.6-48.1,48.1v0.4C18.5,60.6,17.4,61.8,16,61.8L16,61.8z"/>
		</g>
		<g>
			<path class="st0" d="M20.7,73.2H16c-1.4,0-2.5-1.1-2.5-2.5V59.3c0-1.4,1.1-2.5,2.5-2.5s2.5,1.1,2.5,2.5v8.9h2.3
				c1.9,0,3.5-1.4,3.5-3.1v-6.3c0-0.7,0.3-1.3,0.8-1.8s1.2-0.7,1.8-0.7c0.1,0,6.5,0.3,10.1-3.1c1.5-1.5,2.3-3.4,2.3-5.9
				c0-0.9,0.5-1.8,1.4-2.2s1.9-0.3,2.6,0.3c5.2,4,13.9,6.1,25,6.1c19.7,0,26.9-10.3,32.8-28.1c0.4-1.3,1.8-2,3.1-1.6
				c1.3,0.4,2,1.8,1.6,3.1C100.6,41,93.4,56.5,68.3,56.5c-10.3,0-18.6-1.7-24.6-5c-0.6,2.1-1.7,3.9-3.3,5.4
				c-3.4,3.2-8.2,4.1-11.1,4.4v3.9C29.2,69.6,25.4,73.2,20.7,73.2z"/>
		</g>
		<g>
			<path class="st0" d="M103.4,26.8c-0.3,0-0.5,0-0.8-0.1c-1.3-0.4-2-1.8-1.6-3.1c0.8-2.6,1.5-4.6,2.4-7.2c1-2.8,0.6-5-1-5.7
				c-1.3-0.6-3.3-0.1-4.7,2.2c-0.7,1.2-2.2,1.6-3.4,0.9c-1.2-0.7-1.6-2.2-0.9-3.4c2.9-4.8,7.7-5.8,11.1-4.2
				c3.3,1.5,5.7,5.8,3.7,11.8c-0.9,2.6-1.6,4.6-2.4,7.2C105.5,26.1,104.5,26.8,103.4,26.8z"/>
		</g>
		<g>
			<path class="st0" d="M95.1,11.7c-0.2,0-0.5,0-0.7-0.1c-1.3-0.4-2.1-1.8-1.7-3.1c0.5-1.8-0.2-2.9-1-3.3c-1-0.5-2.6-0.3-4.1,1.7
				c-3.7,5-8.8,4.6-14.7,4.2c-2-0.1-4-0.3-6.3-0.3c-1.4,0-2.5-1.1-2.5-2.5s1.1-2.5,2.5-2.5c2.4,0,4.7,0.2,6.6,0.3
				c5.7,0.4,8.3,0.5,10.3-2.2c3.1-4.2,7.4-4.6,10.3-3.2c3.3,1.6,4.7,5.3,3.6,9.1C97.1,11,96.1,11.7,95.1,11.7z"/>
		</g>
	</g>
	<g>
		<path class="st0" d="M117.1,73.2h-4.3c-4.9,0-8.9-3.8-8.9-8.4v-3.5c-2.9-0.2-7.7-1.1-11.1-4.4c-2.5-2.4-3.8-5.6-3.8-9.6
			c0-1.4,1.1-2.5,2.5-2.5S94,46,94,47.4c0,2.5,0.7,4.5,2.3,5.9c3.5,3.4,10,3.1,10.1,3.1c0.7,0,1.3,0.2,1.8,0.7s0.8,1.1,0.8,1.8v5.9
			c0,1.9,1.7,3.4,3.9,3.4h1.8v-7.5c0-1.4,1.1-2.5,2.5-2.5s2.5,1.1,2.5,2.5v10C119.6,72.1,118.5,73.2,117.1,73.2z"/>
	</g>
</g>
</svg>
