<?xml version="1.0" encoding="utf-8"?>
<!-- Generator: Adobe Illustrator 24.1.0, SVG Export Plug-In . SVG Version: 6.00 Build 0)  -->
<svg version="1.1" id="emma" xmlns="http://www.w3.org/2000/svg" xmlns:xlink="http://www.w3.org/1999/xlink" x="0px" y="0px"
	 viewBox="0 0 113.8 122.1" style="enable-background:new 0 0 113.8 122.1;" xml:space="preserve">
<style type="text/css">
	.st0{fill:#2239A0;}
</style>
<g>
	<g>
		<path class="st0" d="M54.4,74.2c-1.8,0-3.4-1.1-4.1-2.5c-1.2-2.1-0.5-4.6,1.5-5.8c1.8-1,1.8-4.4,1.3-7.6
			c-6.7,8.8-11.6,14.1-26.3,14.1c-4.7,0-8.5-1.1-12.5-2.3l-1-0.3c-1.1-0.3-1.8-1.5-1.5-2.7c0.3-1.1,1.5-1.8,2.7-1.5l1,0.3
			C19.2,67,22.8,68,26.8,68c13.6,0,17.2-4.8,24.4-14.4l1.2-1.6c0.5-0.6,1.3-1,2.1-0.8c0.8,0.1,1.4,0.7,1.7,1.4
			c0.5,1.3,4.3,13.1-2.1,16.9c0,0.1,0.1,0.2,0.2,0.2c0.1,0.1,0.3,0,0.6-0.1c3.3-1.8,8.6-7.4,7.2-17.1c-0.1-0.9,0.4-1.9,1.2-2.3
			c0.9-0.4,1.9-0.2,2.5,0.5c8.3,9.3,20.5,14.6,33.6,14.6c0.4,0,0.9,0,1.3,0h0.2c1.2,0,2.2,0.9,2.2,2.1s-0.9,2.2-2.1,2.2h-0.2
			c-0.5,0-1,0-1.4,0c-12.4,0-24.1-4.4-32.9-12.1c-0.7,8.7-6,13.9-9.6,15.8C56,74,55.1,74.2,54.4,74.2z"/>
	</g>
	<g>
		<path class="st0" d="M57.5,107.9c-4.7,0-9.2-1.5-12-4c-0.9-0.8-0.9-2.2-0.1-3c0.8-0.9,2.2-0.9,3-0.1c2,1.8,5.4,2.9,9.1,2.9
			c3.7,0,7.1-1.1,9.1-2.9c0.9-0.8,2.2-0.7,3,0.1c0.8,0.9,0.7,2.2-0.1,3C66.7,106.4,62.2,107.9,57.5,107.9z"/>
	</g>
	<g>
		<path class="st0" d="M57.1,121.9c-17.9,0-34.3-11.2-40.7-28c-0.4-1.1,0.1-2.4,1.2-2.8s2.4,0.1,2.8,1.2
			c5.8,15.1,20.5,25.2,36.7,25.2S88,107.4,93.8,92.3c0.4-1.1,1.7-1.7,2.8-1.2c1.1,0.4,1.7,1.7,1.2,2.8
			C91.4,110.6,75,121.9,57.1,121.9z"/>
	</g>
	<g>
		<g>
			<path class="st0" d="M13.8,70c-1.2,0-2.1-1-2.2-2.1v-0.1c0-0.1,0-0.2,0-0.3c0-25.3,20.6-45.8,45.8-45.8
				c25.3,0,45.8,20.6,45.8,45.8v0.1c0,1.2-1,2.1-2.2,2.1s-2.2-1-2.2-2.2v-0.1c0-22.9-18.6-41.5-41.5-41.5S16,44.6,16,67.5v0.4
				C16,69,15,70,13.8,70L13.8,70z"/>
		</g>
		<g>
			<path class="st0" d="M18.4,95.3C18.4,95.3,18.3,95.3,18.4,95.3C4.9,94.8,0,84.5,0,77.8c0-7.3,4.6-12.4,11.2-12.4
				c1.1,0,2.1,0.1,3.2,0.4s1.8,1.5,1.5,2.6c-0.3,1.1-1.5,1.8-2.6,1.5c-0.7-0.2-1.4-0.3-2.1-0.3c-4.7,0-6.9,4.1-6.9,8.1
				c0,3.5,2.5,12.8,14.2,13.2c1.2,0,2.1,1,2.1,2.2C20.5,94.4,19.6,95.3,18.4,95.3z"/>
		</g>
		<g>
			<path class="st0" d="M95.8,95.3c-1.1,0-2.1-0.9-2.1-2c-0.1-1.2,0.8-2.2,2-2.3c10.8-0.7,13.7-8.9,13.7-13.2c0-4-2.1-8.1-6.9-8.1
				c-0.3,0-0.7,0-1,0.1c-1.2,0.2-2.3-0.7-2.4-1.9c-0.1-1.2,0.7-2.3,1.9-2.4c0.5-0.1,1-0.1,1.6-0.1c6.6,0,11.2,5.1,11.2,12.4
				c0,6.6-4.7,16.7-17.7,17.5C95.9,95.3,95.8,95.3,95.8,95.3z"/>
		</g>
	</g>
	<g>
		<g>
			<path class="st0" d="M77.4,86.9c-1.8,0-3.2-1.4-3.2-3.2v-4.4c0-1.8,1.4-3.2,3.2-3.2c1.8,0,3.2,1.4,3.2,3.2v4.4
				C80.6,85.4,79.1,86.9,77.4,86.9z"/>
		</g>
		<g>
			<path class="st0" d="M36.8,86.9c-1.8,0-3.2-1.4-3.2-3.2v-4.4c0-1.8,1.4-3.2,3.2-3.2s3.2,1.4,3.2,3.2v4.4
				C40,85.4,38.6,86.9,36.8,86.9z"/>
		</g>
	</g>
	<g>
		<g>
			<path class="st0" d="M78.5,31.3c-0.2,0-0.4,0-0.5-0.1c-1.2-0.3-1.8-1.5-1.6-2.6c0.4-1.6,0.6-3.2,0.6-4.8C77,13,68.2,4.3,57.5,4.3
				C46.7,4.3,38,13,38,23.8c0,1.6,0.2,3.3,0.6,4.8c0.3,1.2-0.4,2.3-1.6,2.6c-1.1,0.3-2.3-0.4-2.6-1.6c-0.5-1.9-0.7-3.9-0.7-5.9
				C33.7,10.7,44.4,0,57.5,0s23.8,10.7,23.8,23.8c0,2-0.2,4-0.7,5.9C80.3,30.6,79.4,31.3,78.5,31.3z"/>
		</g>
	</g>
</g>
</svg>
