<?xml version="1.0" encoding="utf-8"?>
<!-- Generator: Adobe Illustrator 24.1.0, SVG Export Plug-In . SVG Version: 6.00 Build 0)  -->
<svg version="1.1" id="emma" xmlns="http://www.w3.org/2000/svg" xmlns:xlink="http://www.w3.org/1999/xlink" x="0px" y="0px"
	 viewBox="0 0 113.8 122.1" style="enable-background:new 0 0 113.8 122.1;" xml:space="preserve">
<style type="text/css">
	.st0{fill:#455BAF;}
</style>
<g>
	<g>
		<path class="st0" d="M26.9,72.6c-4.7,0-8.5-1.1-12.5-2.3l-1-0.3c-1.1-0.3-1.8-1.5-1.5-2.7c0.3-1.1,1.5-1.8,2.7-1.5l1,0.3
			c3.7,1.1,7.3,2.1,11.3,2.1c14.3,0,27.6-6.4,35.7-17.1c0.7-1,2.1-1.1,3-0.4c1,0.7,1.1,2.1,0.4,3C57.2,65.6,42.5,72.6,26.9,72.6z"/>
	</g>
	<g>
		<path class="st0" d="M99.6,70c-14.4,0-27.8-5.9-36.9-16.1c-0.8-0.9-0.7-2.3,0.2-3c0.9-0.8,2.3-0.7,3,0.2
			c8.3,9.3,20.5,14.7,33.7,14.7c0.4,0,0.9,0,1.3,0h0.2c1.2,0,2.2,0.9,2.2,2.1s-0.9,2.2-2.1,2.2H101C100.6,70,100.1,70,99.6,70z"/>
	</g>
	<g>
		<path class="st0" d="M57.2,108.1c-4.7,0-9.2-1.5-12-4c-0.9-0.8-0.9-2.2-0.1-3c0.8-0.9,2.2-0.9,3-0.1c2,1.8,5.4,2.9,9.1,2.9
			s7.1-1.1,9.1-2.9c0.9-0.8,2.2-0.7,3,0.1c0.8,0.9,0.7,2.2-0.1,3C66.4,106.6,61.9,108.1,57.2,108.1z"/>
	</g>
	<g>
		<path class="st0" d="M48,84.3c-0.5,0-1.1-0.2-1.5-0.6c-0.9-0.8-0.9-2.2-0.1-3c2.5-2.6,6.5-4.2,10.8-4.2s8.3,1.6,10.8,4.2
			c0.8,0.9,0.8,2.2-0.1,3s-2.2,0.8-3-0.1c-1.7-1.8-4.5-2.8-7.6-2.8s-6,1.1-7.6,2.8C49.1,84.1,48.6,84.3,48,84.3z"/>
	</g>
	<g>
		<path class="st0" d="M77.5,87.1c-1.8,0-3.2-1.4-3.2-3.2v-4.4c0-1.8,1.4-3.2,3.2-3.2c1.8,0,3.2,1.4,3.2,3.2v4.4
			C80.7,85.6,79.3,87.1,77.5,87.1z"/>
	</g>
	<g>
		<path class="st0" d="M36.9,87.1c-1.8,0-3.2-1.4-3.2-3.2v-4.4c0-1.8,1.4-3.2,3.2-3.2s3.2,1.4,3.2,3.2v4.4
			C40.1,85.6,38.7,87.1,36.9,87.1z"/>
	</g>
	<g>
		<path class="st0" d="M57.2,122.1c-17.9,0-34.3-11.3-40.8-28c-0.4-1.1,0.1-2.4,1.2-2.8s2.4,0.1,2.8,1.2
			c5.8,15.1,20.6,25.2,36.7,25.2c16.2,0,31-10.2,36.8-25.3c0.4-1.1,1.7-1.7,2.8-1.2c1.1,0.4,1.7,1.7,1.2,2.8
			C91.5,110.8,75.1,122.1,57.2,122.1z"/>
	</g>
	<g>
		<g>
			<path class="st0" d="M13.8,70.1c-1.2,0-2.1-0.9-2.2-2.1v-0.1c0-0.1,0-0.2,0-0.3c0-25.3,20.6-45.9,45.9-45.9s45.9,20.6,45.9,45.9
				v0.1c0,1.2-1,2.2-2.2,2.2s-2.2-1-2.2-2.2v-0.1C99.2,44.7,80.5,26,57.6,26S16,44.7,16,67.6V68C16,69.2,15.1,70.1,13.8,70.1
				C13.9,70.1,13.9,70.1,13.8,70.1z"/>
		</g>
		<g>
			<path class="st0" d="M18.4,95.5L18.4,95.5C4.9,94.9,0,84.7,0,77.9c0-7.3,4.6-12.4,11.2-12.4c1.1,0,2.2,0.1,3.2,0.4
				c1.2,0.3,1.8,1.5,1.5,2.6c-0.3,1.2-1.5,1.8-2.6,1.5c-0.7-0.2-1.4-0.3-2.1-0.3c-4.8,0-6.9,4.1-6.9,8.1c0,3.5,2.6,12.8,14.2,13.3
				c1.2,0,2.1,1.1,2.1,2.2C20.5,94.6,19.6,95.5,18.4,95.5z"/>
		</g>
		<g>
			<path class="st0" d="M96,95.5c-1.1,0-2.1-0.9-2.2-2c-0.1-1.2,0.8-2.2,2-2.3c10.8-0.7,13.7-8.9,13.7-13.2c0-4-2.1-8.1-6.9-8.1
				c-0.3,0-0.7,0-1,0.1c-1.2,0.2-2.3-0.7-2.4-1.9c-0.1-1.2,0.7-2.3,1.9-2.4c0.5-0.1,1-0.1,1.6-0.1c6.6,0,11.2,5.1,11.2,12.4
				C113.9,84.6,109.2,94.7,96,95.5L96,95.5z"/>
		</g>
	</g>
	<g>
		<path class="st0" d="M30.8,82.7c-0.9,0-1.8-0.6-2-1.5c-0.4-1.1,0.2-2.3,1.4-2.7c3.4-1.1,7.4-3.1,7.4-3.1c1.1-0.5,2.4-0.1,2.9,1
			s0.1,2.4-1,2.9c-0.2,0.1-4.3,2.1-8,3.3C31.2,82.7,31,82.7,30.8,82.7z"/>
	</g>
	<g>
		<path class="st0" d="M83.6,82.7c-0.2,0-0.4,0-0.7-0.1c-3.7-1.2-7.8-3.2-8-3.3c-1.1-0.5-1.5-1.8-1-2.9s1.8-1.5,2.9-1
			c0,0,4.1,2,7.4,3.1c1.1,0.4,1.8,1.6,1.4,2.7C85.3,82.1,84.5,82.7,83.6,82.7z"/>
	</g>
	<g>
		<g>
			<path class="st0" d="M78.6,31.4c-0.2,0-0.4,0-0.5-0.1c-1.2-0.3-1.9-1.5-1.6-2.6c0.4-1.6,0.6-3.2,0.6-4.8
				c0-10.8-8.8-19.5-19.5-19.5c-10.8,0-19.5,8.8-19.5,19.5c0,1.6,0.2,3.3,0.6,4.8c0.3,1.2-0.4,2.3-1.6,2.6c-1.2,0.3-2.3-0.4-2.6-1.6
				c-0.5-1.9-0.7-3.9-0.7-5.9C33.8,10.7,44.5,0,57.6,0s23.8,10.7,23.8,23.8c0,2-0.2,4-0.7,5.9C80.5,30.7,79.6,31.4,78.6,31.4z"/>
		</g>
	</g>
	<g>
		<path class="st0" d="M36.9,94.9c-7.3,0-13.3-6-13.3-13.3s6-13.3,13.3-13.3s13.3,6,13.3,13.3S44.2,94.9,36.9,94.9z M36.9,72.6
			c-5,0-9,4-9,9s4,9,9,9s9-4,9-9S41.9,72.6,36.9,72.6z"/>
	</g>
	<g>
		<path class="st0" d="M77.5,95c-7.3,0-13.3-6-13.3-13.3s6-13.3,13.3-13.3s13.3,6,13.3,13.3S84.8,95,77.5,95z M77.5,72.6
			c-5,0-9,4-9,9s4,9,9,9s9-4,9-9C86.5,76.7,82.5,72.6,77.5,72.6z"/>
	</g>
	<g>
		<g>
			<path class="st0" d="M38,106.6c-0.2,0-0.5,0-0.8-0.1c-1.1-0.4-1.7-1.7-1.3-2.8c1.6-4.2,3.7-6.7,5.2-8.1c0.9-0.8,2.2-0.7,3,0.1
				c0.8,0.9,0.7,2.2-0.1,3c-1.2,1.1-2.8,3-4.1,6.4C39.7,106.1,38.8,106.6,38,106.6z"/>
		</g>
		<g>
			<path class="st0" d="M76.4,106.6c-0.9,0-1.7-0.5-2-1.4c-1.3-3.4-2.9-5.4-4.1-6.4c-0.9-0.8-0.9-2.2-0.1-3c0.8-0.9,2.2-0.9,3-0.1
				c1.5,1.4,3.7,3.9,5.2,8.1c0.4,1.1-0.2,2.4-1.3,2.8C76.9,106.6,76.7,106.6,76.4,106.6z"/>
		</g>
	</g>
</g>
</svg>
