<?xml version="1.0" encoding="utf-8"?>
<!-- Generator: Adobe Illustrator 24.0.3, SVG Export Plug-In . SVG Version: 6.00 Build 0)  -->
<svg version="1.1" id="flashback" xmlns="http://www.w3.org/2000/svg" xmlns:xlink="http://www.w3.org/1999/xlink" x="0px" y="0px"
	 viewBox="0 0 382.5 760.6" style="enable-background:new 0 0 382.5 760.6;" xml:space="preserve">
<style type="text/css">
	
		.st0{clip-path:url(#SVGID_4_);fill-rule:evenodd;clip-rule:evenodd;fill:#2239A0;stroke:#2239A0;stroke-linecap:square;stroke-linejoin:round;stroke-miterlimit:10;}
</style>
<g id="symbol">
	<g>
		<g>
			<defs>
				<polygon id="SVGID_1_" points="149.7,347.5 1.7,494.1 2.5,319.8 62.9,259.9 3,199.5 3.9,0.5 314,313.4 34.8,590.8 34.4,679.4 
					334.6,381.8 310.1,357 333.9,333.4 382,382 0.5,760.1 1.3,576.8 266.7,313.2 37,81.5 36.6,185.8 110.3,260.1 35.9,333.8 
					35.6,413.4 149.9,300.1 199.6,350.3 175.8,373.9 				"/>
			</defs>
			<clipPath id="SVGID_2_">
				<use xlink:href="#SVGID_1_"  style="overflow:visible;"/>
			</clipPath>
		</g>
	</g>
	<g>
		<g>
			<defs>
				<polygon id="SVGID_3_" points="149.7,347.5 1.7,494.1 2.5,319.8 62.9,259.9 3,199.5 3.9,0.5 314,313.4 34.8,590.8 34.4,679.4 
					334.6,381.8 310.1,357 333.9,333.4 382,382 0.5,760.1 1.3,576.8 266.7,313.2 37,81.5 36.6,185.8 110.3,260.1 35.9,333.8 
					35.6,413.4 149.9,300.1 199.6,350.3 175.8,373.9 				"/>
			</defs>
			<use xlink:href="#SVGID_3_"  style="overflow:visible;fill:#2239A0;"/>
			<clipPath id="SVGID_4_">
				<use xlink:href="#SVGID_3_"  style="overflow:visible;"/>
			</clipPath>
			<polygon class="st0" points="382,382 0.5,760.1 -377.6,378.6 3.9,0.5 382,382 366.8,381.9 0.6,744.9 -362.4,378.7 3.8,15.7 
				366.8,381.9 			"/>
			<polygon class="st0" points="374.4,382 0.5,752.5 -370,378.6 3.9,8.1 374.4,382 359.2,381.9 0.6,737.3 -354.8,378.7 3.8,23.3 
				359.2,381.9 			"/>
			<polygon class="st0" points="366.8,381.9 0.6,744.9 -362.4,378.7 3.8,15.7 366.8,381.9 351.6,381.9 0.6,729.7 -347.2,378.7 
				3.8,30.9 351.6,381.9 			"/>
			<polygon class="st0" points="359.2,381.9 0.6,737.3 -354.8,378.7 3.8,23.3 359.2,381.9 344,381.8 0.7,722.1 -339.6,378.8 
				3.7,38.5 344,381.8 			"/>
			<polygon class="st0" points="351.6,381.9 0.6,729.7 -347.2,378.7 3.8,30.9 351.6,381.9 336.4,381.8 0.7,714.5 -332,378.8 
				3.7,46.1 336.4,381.8 			"/>
			<polygon class="st0" points="344,381.8 0.7,722.1 -339.6,378.8 3.7,38.5 344,381.8 328.8,381.8 0.7,706.9 -324.4,378.8 3.7,53.7 
				328.8,381.8 			"/>
			<polygon class="st0" points="336.4,381.8 0.7,714.5 -332,378.8 3.7,46.1 336.4,381.8 321.2,381.7 0.8,699.3 -316.8,378.9 
				3.6,61.3 321.2,381.7 			"/>
			<polygon class="st0" points="328.8,381.8 0.7,706.9 -324.4,378.8 3.7,53.7 328.8,381.8 313.6,381.7 0.8,691.7 -309.2,378.9 
				3.6,68.9 313.6,381.7 			"/>
			<polygon class="st0" points="321.2,381.7 0.8,699.3 -316.8,378.9 3.6,61.3 321.2,381.7 306,381.7 0.8,684.1 -301.6,378.9 
				3.6,76.5 306,381.7 			"/>
			<polygon class="st0" points="313.6,381.7 0.8,691.7 -309.2,378.9 3.6,68.9 313.6,381.7 298.4,381.6 0.9,676.5 -294,379 3.5,84.1 
				298.4,381.6 			"/>
			<polygon class="st0" points="306,381.7 0.8,684.1 -301.6,378.9 3.6,76.5 306,381.7 290.8,381.6 0.9,668.9 -286.4,379 3.5,91.7 
				290.8,381.6 			"/>
			<polygon class="st0" points="298.5,381.6 0.9,676.6 -294,379 3.5,84.1 298.5,381.6 283.3,381.6 0.9,661.4 -278.8,379 3.5,99.3 
				283.3,381.6 			"/>
			<polygon class="st0" points="290.9,381.6 0.9,669 -286.5,379 3.5,91.7 290.9,381.6 275.7,381.5 1,653.8 -271.3,379.1 3.4,106.8 
				275.7,381.5 			"/>
			<polygon class="st0" points="283.3,381.6 0.9,661.4 -278.8,379 3.5,99.3 283.3,381.6 268.1,381.5 1,646.2 -263.7,379.1 
				3.4,114.4 268.1,381.5 			"/>
			<polygon class="st0" points="275.7,381.5 1,653.8 -271.3,379.1 3.4,106.8 275.7,381.5 260.5,381.5 1,638.6 -256.1,379.1 3.4,122 
				260.5,381.5 			"/>
			<polygon class="st0" points="268.1,381.5 1,646.2 -263.7,379.1 3.4,114.4 268.1,381.5 252.9,381.4 1.1,631 -248.5,379.2 
				3.3,129.6 252.9,381.4 			"/>
			<polygon class="st0" points="260.5,381.5 1,638.6 -256.1,379.1 3.4,122 260.5,381.5 245.3,381.4 1.1,623.4 -240.9,379.2 
				3.3,137.2 245.3,381.4 			"/>
			<polygon class="st0" points="252.9,381.4 1.1,631 -248.5,379.2 3.3,129.6 252.9,381.4 237.7,381.4 1.1,615.8 -233.3,379.2 
				3.3,144.8 237.7,381.4 			"/>
			<polygon class="st0" points="245.3,381.4 1.1,623.4 -240.9,379.2 3.3,137.2 245.3,381.4 230.1,381.3 1.2,608.2 -225.7,379.3 
				3.2,152.4 230.1,381.3 			"/>
			<polygon class="st0" points="237.7,381.4 1.1,615.8 -233.3,379.2 3.3,144.8 237.7,381.4 222.5,381.3 1.2,600.6 -218.1,379.3 
				3.2,160 222.5,381.3 			"/>
			<polygon class="st0" points="230.1,381.3 1.2,608.2 -225.7,379.3 3.2,152.4 230.1,381.3 214.9,381.3 1.2,593 -210.5,379.4 
				3.2,167.6 214.9,381.3 			"/>
			<polygon class="st0" points="222.5,381.3 1.2,600.6 -218.1,379.3 3.2,160 222.5,381.3 207.3,381.2 1.3,585.4 -202.9,379.4 
				3.1,175.2 207.3,381.2 			"/>
			<polygon class="st0" points="214.9,381.3 1.2,593 -210.5,379.3 3.2,167.6 214.9,381.3 199.7,381.2 1.3,577.8 -195.3,379.4 
				3.1,182.8 199.7,381.2 			"/>
			<polygon class="st0" points="207.3,381.2 1.3,585.4 -202.9,379.4 3.1,175.2 207.3,381.2 192.1,381.2 1.3,570.2 -187.7,379.5 
				3.1,190.4 192.1,381.2 			"/>
			<polygon class="st0" points="199.7,381.2 1.3,577.8 -195.3,379.4 3.1,182.8 199.7,381.2 184.5,381.1 1.4,562.6 -180.1,379.5 
				3,198 184.5,381.1 			"/>
			<polygon class="st0" points="192.1,381.2 1.4,570.2 -187.7,379.5 3.1,190.4 192.1,381.2 176.9,381.1 1.4,555 -172.5,379.5 
				3,205.6 176.9,381.1 			"/>
			<polygon class="st0" points="184.5,381.1 1.4,562.6 -180.1,379.5 3,198 184.5,381.1 169.3,381.1 1.5,547.4 -164.9,379.6 3,213.2 
				169.3,381.1 			"/>
			<polygon class="st0" points="176.9,381.1 1.4,555 -172.5,379.5 3,205.6 176.9,381.1 161.7,381 1.5,539.8 -157.3,379.6 2.9,220.8 
				161.7,381 			"/>
			<polygon class="st0" points="169.3,381.1 1.5,547.4 -164.9,379.6 3,213.2 169.3,381.1 154.1,381 1.5,532.2 -149.7,379.6 
				2.9,228.4 154.1,381 			"/>
			<polygon class="st0" points="161.7,381 1.5,539.8 -157.3,379.6 2.9,220.8 161.7,381 146.5,381 1.6,524.6 -142.1,379.7 2.9,236 
				146.5,381 			"/>
			<polygon class="st0" points="154.1,381 1.5,532.2 -149.7,379.6 2.9,228.4 154.1,381 138.9,380.9 1.6,517 -134.5,379.7 2.8,243.6 
				138.9,380.9 			"/>
			<polygon class="st0" points="146.5,381 1.6,524.6 -142.1,379.7 2.8,236 146.5,381 131.3,380.9 1.6,509.4 -126.9,379.7 2.8,251.2 
				131.3,380.9 			"/>
			<polygon class="st0" points="138.9,380.9 1.6,517 -134.5,379.7 2.8,243.6 138.9,380.9 123.7,380.8 1.7,501.8 -119.3,379.8 
				2.7,258.8 123.7,380.8 			"/>
			<polygon class="st0" points="131.3,380.9 1.6,509.4 -126.9,379.7 2.8,251.2 131.3,380.9 116.1,380.8 1.7,494.2 -111.7,379.8 
				2.7,266.4 116.1,380.8 			"/>
			<polygon class="st0" points="123.7,380.9 1.7,501.8 -119.3,379.8 2.7,258.8 123.7,380.9 108.5,380.8 1.7,486.6 -104.1,379.8 
				2.7,274 108.5,380.8 			"/>
			<polygon class="st0" points="116.1,380.8 1.7,494.2 -111.7,379.8 2.7,266.4 116.1,380.8 100.9,380.7 1.8,479 -96.5,379.9 
				2.6,281.6 100.9,380.7 			"/>
			<polygon class="st0" points="108.5,380.8 1.7,486.6 -104.1,379.8 2.7,274 108.5,380.8 93.4,380.7 1.8,471.5 -88.9,379.9 
				2.6,289.2 93.4,380.7 			"/>
			<polygon class="st0" points="100.9,380.8 1.8,479.1 -96.5,379.9 2.6,281.6 100.9,380.8 85.8,380.7 1.8,463.9 -81.4,379.9 
				2.6,296.7 85.8,380.7 			"/>
			<polygon class="st0" points="93.4,380.7 1.8,471.5 -88.9,379.9 2.6,289.2 93.4,380.7 78.2,380.6 1.9,456.3 -73.8,380 2.5,304.4 
				78.2,380.6 			"/>
			<polygon class="st0" points="85.8,380.7 1.8,463.9 -81.4,379.9 2.6,296.7 85.8,380.7 70.6,380.6 1.9,448.7 -66.2,380 2.5,311.9 
				70.6,380.6 			"/>
			<polygon class="st0" points="78.2,380.6 1.9,456.3 -73.8,380 2.5,304.3 78.2,380.6 63,380.6 1.9,441.1 -58.6,380 2.5,319.5 
				63,380.6 			"/>
			<polygon class="st0" points="70.6,380.6 1.9,448.7 -66.2,380 2.5,311.9 70.6,380.6 55.4,380.5 2,433.5 -51,380.1 2.4,327.1 
				55.4,380.5 			"/>
			<polygon class="st0" points="63,380.6 1.9,441.1 -58.6,380 2.5,319.5 63,380.6 47.8,380.5 2,425.9 -43.4,380.1 2.4,334.7 
				47.8,380.5 			"/>
			<polygon class="st0" points="55.4,380.5 2,433.5 -51,380.1 2.4,327.1 55.4,380.5 40.2,380.5 2,418.3 -35.8,380.1 2.4,342.3 
				40.2,380.5 			"/>
			<polygon class="st0" points="47.8,380.5 2,425.9 -43.4,380.1 2.4,334.7 47.8,380.5 32.6,380.4 2.1,410.7 -28.2,380.2 2.3,349.9 
				32.6,380.4 			"/>
			<polygon class="st0" points="40.2,380.5 2,418.3 -35.8,380.1 2.4,342.3 40.2,380.5 25,380.4 2.1,403.1 -20.6,380.2 2.3,357.5 
				25,380.4 			"/>
			<polygon class="st0" points="32.6,380.4 2.1,410.7 -28.2,380.2 2.3,349.9 32.6,380.4 17.4,380.4 2.1,395.5 -13,380.2 2.3,365.1 
				17.4,380.4 			"/>
			<polygon class="st0" points="25,380.4 2.1,403.1 -20.6,380.2 2.3,357.5 25,380.4 9.8,380.3 2.2,387.9 -5.4,380.3 2.2,372.7 
				9.8,380.3 			"/>
			<polygon class="st0" points="17.4,380.4 2.1,395.5 -13,380.2 2.3,365.1 17.4,380.4 2.2,380.3 2.2,380.3 2.2,380.3 2.2,380.3 
				2.2,380.3 			"/>
			<polygon class="st0" points="9.8,380.3 2.2,387.9 -5.4,380.3 2.2,372.7 9.8,380.3 			"/>
			
				<use xlink:href="#SVGID_3_"  style="overflow:visible;fill:none;stroke:#2239A0;stroke-linecap:square;stroke-linejoin:round;stroke-miterlimit:10;"/>
		</g>
	</g>
	<g>
		<g>
			<defs>
				<polygon id="SVGID_5_" points="149.7,347.5 1.7,494.1 2.5,319.8 62.9,259.9 3,199.5 3.9,0.5 314,313.4 34.8,590.8 34.4,679.4 
					334.6,381.8 310.1,357 333.9,333.4 382,382 0.5,760.1 1.3,576.8 266.7,313.2 37,81.5 36.6,185.8 110.3,260.1 35.9,333.8 
					35.6,413.4 149.9,300.1 199.6,350.3 175.8,373.9 				"/>
			</defs>
			<clipPath id="SVGID_6_">
				<use xlink:href="#SVGID_5_"  style="overflow:visible;"/>
			</clipPath>
		</g>
	</g>
</g>
</svg>
