<?xml version="1.0" encoding="utf-8"?>
<!-- Generator: Adobe Illustrator 24.0.3, SVG Export Plug-In . SVG Version: 6.00 Build 0)  -->
<svg version="1.1" id="instagram" xmlns="http://www.w3.org/2000/svg" xmlns:xlink="http://www.w3.org/1999/xlink" x="0px" y="0px"
	 viewBox="0 0 20.6 39.5" style="enable-background:new 0 0 20.6 39.5;" xml:space="preserve">
<style type="text/css">
	.st0{fill:#DBE4FF;}
</style>
<path class="st0" d="M12.9,39.5l0-17.1h5.9c0.5,0,1-0.4,1-0.9l0.7-5.5c0.1-0.6-0.4-1.2-1-1.2h-6.6v-4.6c0-2.1,0.6-3.5,3.6-3.5l2.8,0
	c0.6,0,1-0.5,1-1V1c0-0.6-0.5-1-1-1h-4.5C9.2,0,5.5,3.4,5.5,9.5v5.3H1c-0.6,0-1,0.5-1,1.1l0,5.5c0,0.6,0.5,1,1,1h4.4l0,17.1H12.9z"
	/>
</svg>
