<?xml version="1.0" encoding="utf-8"?>
<!-- Generator: Adobe Illustrator 24.0.3, SVG Export Plug-In . SVG Version: 6.00 Build 0)  -->
<svg version="1.1" id="instagram" xmlns="http://www.w3.org/2000/svg" xmlns:xlink="http://www.w3.org/1999/xlink" x="0px" y="0px"
	 viewBox="0 0 39.7 39.7" style="enable-background:new 0 0 39.7 39.7;" xml:space="preserve">
<style type="text/css">
	.st0{fill:#DBE4FF;}
</style>
<path id="instagram_1_" class="st0" d="M27.9,0H11.8C5.3,0,0,5.3,0,11.8v16.1c0,6.5,5.3,11.8,11.8,11.8h16.1
	c6.5,0,11.8-5.3,11.8-11.8V11.8C39.7,5.3,34.4,0,27.9,0z M35.7,27.9c0,4.3-3.5,7.8-7.8,7.8H11.8c-4.3,0-7.8-3.5-7.8-7.8V11.8
	C4,7.5,7.5,4,11.8,4h16.1c4.3,0,7.8,3.5,7.8,7.8V27.9z M19.9,9.6c-5.7,0-10.3,4.6-10.3,10.3s4.6,10.3,10.3,10.3s10.3-4.6,10.3-10.3
	S25.5,9.6,19.9,9.6z M19.9,26.2c-3.5,0-6.3-2.8-6.3-6.3s2.8-6.3,6.3-6.3s6.3,2.8,6.3,6.3C26.2,23.3,23.3,26.2,19.9,26.2z M32.6,9.7
	c0,1.4-1.1,2.5-2.5,2.5s-2.5-1.1-2.5-2.5s1.1-2.5,2.5-2.5C31.5,7.2,32.6,8.3,32.6,9.7z"/>
</svg>
