<?xml version="1.0" encoding="utf-8"?>
<!-- Generator: Adobe Illustrator 24.0.3, SVG Export Plug-In . SVG Version: 6.00 Build 0)  -->
<svg version="1.1" id="twitter" xmlns="http://www.w3.org/2000/svg" xmlns:xlink="http://www.w3.org/1999/xlink" x="0px" y="0px"
	 viewBox="0 0 46.7 39.2" style="enable-background:new 0 0 46.7 39.2;" xml:space="preserve">
<style type="text/css">
	.st0{fill:#DBE4FF;}
</style>
<path class="st0" d="M46.2,4.7c-1,0.5-2.1,0.8-3.2,1.1c1.2-1.2,2.1-2.6,2.7-4.2l0,0c0.1-0.5-0.4-0.9-0.8-0.6l0,0
	c-1.5,0.9-3.2,1.6-4.9,2c-0.1,0-0.2,0-0.3,0c-0.3,0-0.6-0.1-0.9-0.3C36.9,1,34.5,0.1,32,0.1c-1.1,0-2.1,0.2-3.2,0.5
	c-3.3,1-5.8,3.7-6.6,7.1c-0.3,1.3-0.4,2.5-0.2,3.7c0,0.1-0.1,0.2-0.1,0.3c-0.1,0.1-0.2,0.1-0.3,0.1l0,0C14.4,11.2,7.9,7.7,3.3,2.1
	l0,0C3.1,1.8,2.6,1.8,2.5,2.2l0,0C1.6,3.7,1.1,5.5,1.1,7.3c0,2.7,1.1,5.3,3,7.2c-0.8-0.2-1.6-0.5-2.3-0.9l0,0C1.4,13.4,1,13.6,1,14
	l0,0c0,4.1,2.3,7.7,5.9,9.3c-0.1,0-0.1,0-0.2,0c-0.6,0-1.1-0.1-1.7-0.2l0,0c-0.4-0.1-0.7,0.3-0.6,0.7l0,0c1.2,3.6,4.3,6.3,8,6.9
	C9.3,32.8,5.7,33.9,2,33.9H0.8c-0.4,0-0.7,0.2-0.8,0.6c-0.1,0.3,0.1,0.7,0.4,0.9c4.2,2.5,9.1,3.8,14,3.8c4.3,0,8.3-0.9,11.9-2.5
	c3.3-1.5,6.3-3.7,8.7-6.5c2.3-2.6,4.1-5.6,5.3-8.9c1.2-3.2,1.8-6.6,1.8-9.8v-0.2c0-0.5,0.2-1,0.6-1.3c1.6-1.3,2.9-2.7,4-4.4l0,0
	C47.1,5,46.7,4.5,46.2,4.7L46.2,4.7L46.2,4.7z"/>
</svg>
